<svg data-v-423bf9ae="" xmlns="http://www.w3.org/2000/svg" viewBox="0 0 453 90" class="iconLeftSlogan"><!----><!----><!----><g data-v-423bf9ae="" id="98d65564-dd95-478b-8d4c-be0b5a28bf01" fill="white" transform="matrix(4.983389114836497,0,0,4.983389114836497,172.66827459059832,-14.252493056949454)"><path d="M0.21 2.86L6.38 2.86L6.38 2.86Q6.75 2.86 6.98 2.95L6.98 2.95L6.98 2.95Q7.21 3.05 7.34 3.21L7.34 3.21L7.34 3.21Q7.48 3.36 7.53 3.56L7.53 3.56L7.53 3.56Q7.57 3.77 7.57 3.98L7.57 3.98L7.57 5.17L7.15 5.17L7.15 5.17Q7.15 4.27 6.70 3.88L6.70 3.88L6.70 3.88Q6.24 3.49 5.40 3.49L5.40 3.49L3.15 3.49L3.15 6.99L6.79 6.99L6.79 7.62L3.15 7.62L3.15 11.47L5.54 11.47L5.54 11.47Q6.31 11.47 6.85 11.12L6.85 11.12L6.85 11.12Q7.39 10.78 7.76 9.87L7.76 9.87L8.13 10.01L7.73 11.12L7.73 11.12Q7.57 11.56 7.33 11.83L7.33 11.83L7.33 11.83Q7.08 12.10 6.51 12.10L6.51 12.10L1.33 12.10L1.33 4.68L1.33 4.68Q1.33 4.05 1.16 3.66L1.16 3.66L1.16 3.66Q0.98 3.28 0.35 3.28L0.35 3.28L0.21 3.28L0.21 2.86ZM12.80 10.63L12.80 8.88L12.59 8.88L12.59 8.88Q11.58 8.88 11.14 9.24L11.14 9.24L11.14 9.24Q10.70 9.60 10.70 10.35L10.70 10.35L10.70 10.35Q10.70 10.93 10.94 11.23L10.94 11.23L10.94 11.23Q11.19 11.54 11.61 11.54L11.61 11.54L11.61 11.54Q11.93 11.54 12.14 11.40L12.14 11.40L12.14 11.40Q12.36 11.26 12.52 11.09L12.52 11.09L12.52 11.09Q12.68 10.89 12.80 10.63L12.80 10.63ZM11.75 5.38L11.75 5.38L11.75 5.38Q13.12 5.38 13.87 6.10L13.87 6.10L13.87 6.10Q14.62 6.83 14.62 8.32L14.62 8.32L14.62 12.10L13.43 12.10L12.94 11.47L12.87 11.47L12.87 11.47Q12.71 11.69 12.47 11.86L12.47 11.86L12.47 11.86Q12.28 12.01 11.96 12.12L11.96 12.12L11.96 12.12Q11.63 12.24 11.19 12.24L11.19 12.24L11.19 12.24Q10.02 12.24 9.42 11.71L9.42 11.71L9.42 11.71Q8.81 11.19 8.81 10.35L8.81 10.35L8.81 10.35Q8.81 9.84 8.97 9.46L8.97 9.46L8.97 9.46Q9.14 9.07 9.57 8.80L9.57 8.80L9.57 8.80Q10.00 8.53 10.72 8.39L10.72 8.39L10.72 8.39Q11.45 8.25 12.59 8.25L12.59 8.25L12.80 8.25L12.80 8.25Q12.80 6.99 12.45 6.50L12.45 6.50L12.45 6.50Q12.10 6.01 11.47 6.01L11.47 6.01L11.47 6.01Q11.23 6.01 11.01 6.05L11.01 6.05L11.01 6.05Q10.79 6.10 10.61 6.24L10.61 6.24L10.61 6.24Q10.43 6.38 10.29 6.63L10.29 6.63L10.29 6.63Q10.15 6.87 10.07 7.27L10.07 7.27L9.30 7.27L9.30 7.27Q9.30 6.90 9.35 6.52L9.35 6.52L9.35 6.52Q9.39 6.15 9.65 5.87L9.65 5.87L9.65 5.87Q9.90 5.59 10.48 5.48L10.48 5.48L10.48 5.48Q11.06 5.38 11.75 5.38ZM18.27 11.61L18.27 11.61L18.27 11.61Q19.05 11.61 19.36 11.33L19.36 11.33L19.36 11.33Q19.67 11.06 19.67 10.65L19.67 10.65L19.67 10.65Q19.67 10.25 19.31 10.00L19.31 10.00L19.31 10.00Q18.94 9.76 18.41 9.52L18.41 9.52L17.68 9.21L17.68 9.21Q16.84 8.85 16.37 8.39L16.37 8.39L16.37 8.39Q15.89 7.92 15.89 7.24L15.89 7.24L15.89 7.24Q15.89 6.78 16.09 6.43L16.09 6.43L16.09 6.43Q16.28 6.09 16.64 5.85L16.64 5.85L16.64 5.85Q17.00 5.61 17.49 5.50L17.49 5.50L17.49 5.50Q17.98 5.38 18.55 5.38L18.55 5.38L18.55 5.38Q19.42 5.38 19.97 5.53L19.97 5.53L19.97 5.53Q20.52 5.68 20.80 5.95L20.80 5.95L20.80 5.95Q21.06 6.19 21.10 6.64L21.10 6.64L21.10 6.64Q21.14 7.08 21.14 7.62L21.14 7.62L20.65 7.62L20.65 7.62Q20.54 6.94 20.10 6.47L20.10 6.47L20.10 6.47Q19.67 6.01 18.83 6.01L18.83 6.01L18.83 6.01Q18.20 6.01 17.92 6.28L17.92 6.28L17.92 6.28Q17.64 6.55 17.64 6.96L17.64 6.96L17.64 6.96Q17.64 7.34 17.91 7.57L17.91 7.57L17.91 7.57Q18.17 7.80 18.63 7.99L18.63 7.99L19.47 8.34L19.47 8.34Q20.44 8.75 20.93 9.19L20.93 9.19L20.93 9.19Q21.42 9.63 21.42 10.37L21.42 10.37L21.42 10.37Q21.42 10.84 21.20 11.18L21.20 11.18L21.20 11.18Q20.99 11.52 20.61 11.76L20.61 11.76L20.61 11.76Q20.23 12.00 19.71 12.12L19.71 12.12L19.71 12.12Q19.18 12.24 18.55 12.24L18.55 12.24L18.55 12.24Q17.68 12.24 17.13 12.08L17.13 12.08L17.13 12.08Q16.58 11.93 16.30 11.66L16.30 11.66L16.30 11.66Q16.04 11.42 16.00 10.98L16.00 10.98L16.00 10.98Q15.96 10.53 15.96 10.00L15.96 10.00L16.45 10.00L16.45 10.00Q16.56 10.67 17.00 11.14L17.00 11.14L17.00 11.14Q17.43 11.61 18.27 11.61ZM28.78 5.52L25.96 13.01L25.96 13.01Q25.75 13.58 25.51 13.94L25.51 13.94L25.51 13.94Q25.27 14.31 25.00 14.52L25.00 14.52L25.00 14.52Q24.74 14.73 24.42 14.81L24.42 14.81L24.42 14.81Q24.11 14.90 23.74 14.90L23.74 14.90L23.18 14.90L23.18 14.41L23.18 14.41Q23.55 14.41 23.85 14.34L23.85 14.34L23.85 14.34Q24.15 14.28 24.40 14.13L24.40 14.13L24.40 14.13Q24.65 13.97 24.85 13.71L24.85 13.71L24.85 13.71Q25.05 13.45 25.20 13.05L25.20 13.05L25.49 12.29L22.97 6.78L22.97 6.78Q22.51 5.75 21.67 5.66L21.67 5.66L21.67 5.38L22.90 5.38L22.90 5.38Q23.53 5.38 24.01 5.68L24.01 5.68L24.01 5.68Q24.49 5.98 24.72 6.50L24.72 6.50L26.33 10.02L28.04 5.52L28.78 5.52ZM32.97 6.01L32.97 6.01L32.97 6.01Q32.23 6.01 31.76 6.69L31.76 6.69L31.76 6.69Q31.29 7.38 31.29 8.81L31.29 8.81L31.29 8.81Q31.29 11.61 33.04 11.61L33.04 11.61L33.04 11.61Q33.77 11.61 34.22 11.27L34.22 11.27L34.22 11.27Q34.68 10.93 35.04 10.44L35.04 10.44L35.48 10.77L35.48 10.77Q35.32 11.00 35.11 11.26L35.11 11.26L35.11 11.26Q34.89 11.52 34.57 11.74L34.57 11.74L34.57 11.74Q34.24 11.96 33.80 12.10L33.80 12.10L33.80 12.10Q33.36 12.24 32.76 12.24L32.76 12.24L32.76 12.24Q31.92 12.24 31.29 11.96L31.29 11.96L31.29 11.96Q30.66 11.69 30.24 11.22L30.24 11.22L30.24 11.22Q29.82 10.75 29.61 10.13L29.61 10.13L29.61 10.13Q29.40 9.51 29.40 8.81L29.40 8.81L29.40 8.81Q29.40 8.11 29.61 7.48L29.61 7.48L29.61 7.48Q29.82 6.86 30.24 6.39L30.24 6.39L30.24 6.39Q30.66 5.92 31.29 5.65L31.29 5.65L31.29 5.65Q31.92 5.38 32.76 5.38L32.76 5.38L32.76 5.38Q33.56 5.38 34.11 5.49L34.11 5.49L34.11 5.49Q34.66 5.60 34.93 5.87L34.93 5.87L34.93 5.87Q35.20 6.13 35.24 6.58L35.24 6.58L35.24 6.58Q35.28 7.03 35.28 7.83L35.28 7.83L34.86 7.83L34.86 7.83Q34.80 6.93 34.31 6.47L34.31 6.47L34.31 6.47Q33.81 6.01 32.97 6.01ZM41.17 8.81L41.17 8.81L41.17 8.81Q41.17 8.20 41.08 7.69L41.08 7.69L41.08 7.69Q40.99 7.18 40.81 6.80L40.81 6.80L40.81 6.80Q40.63 6.43 40.35 6.22L40.35 6.22L40.35 6.22Q40.07 6.01 39.70 6.01L39.70 6.01L39.70 6.01Q39.34 6.01 39.06 6.22L39.06 6.22L39.06 6.22Q38.78 6.43 38.60 6.80L38.60 6.80L38.60 6.80Q38.42 7.18 38.33 7.69L38.33 7.69L38.33 7.69Q38.23 8.20 38.23 8.81L38.23 8.81L38.23 8.81Q38.23 9.41 38.33 9.92L38.33 9.92L38.33 9.92Q38.42 10.43 38.60 10.81L38.60 10.81L38.60 10.81Q38.78 11.19 39.06 11.40L39.06 11.40L39.06 11.40Q39.34 11.61 39.70 11.61L39.70 11.61L39.70 11.61Q40.07 11.61 40.35 11.40L40.35 11.40L40.35 11.40Q40.63 11.19 40.81 10.81L40.81 10.81L40.81 10.81Q40.99 10.43 41.08 9.92L41.08 9.92L41.08 9.92Q41.17 9.41 41.17 8.81ZM36.34 8.81L36.34 8.81L36.34 8.81Q36.34 8.09 36.58 7.46L36.58 7.46L36.58 7.46Q36.81 6.83 37.24 6.37L37.24 6.37L37.24 6.37Q37.67 5.91 38.30 5.64L38.30 5.64L38.30 5.64Q38.92 5.38 39.70 5.38L39.70 5.38L39.70 5.38Q40.49 5.38 41.11 5.64L41.11 5.64L41.11 5.64Q41.73 5.91 42.17 6.37L42.17 6.37L42.17 6.37Q42.60 6.83 42.83 7.46L42.83 7.46L42.83 7.46Q43.06 8.09 43.06 8.81L43.06 8.81L43.06 8.81Q43.06 9.52 42.83 10.15L42.83 10.15L42.83 10.15Q42.60 10.78 42.17 11.24L42.17 11.24L42.17 11.24Q41.73 11.70 41.11 11.97L41.11 11.97L41.11 11.97Q40.49 12.24 39.70 12.24L39.70 12.24L39.70 12.24Q38.92 12.24 38.30 11.97L38.30 11.97L38.30 11.97Q37.67 11.70 37.24 11.24L37.24 11.24L37.24 11.24Q36.81 10.78 36.58 10.15L36.58 10.15L36.58 10.15Q36.34 9.52 36.34 8.81ZM47.91 5.38L47.91 5.38L47.91 5.38Q48.52 5.38 48.90 5.66L48.90 5.66L48.90 5.66Q49.03 5.74 49.11 5.85L49.11 5.85L49.11 5.85Q49.20 5.96 49.26 6.06L49.26 6.06L49.26 6.06Q49.32 6.16 49.35 6.22L49.35 6.22L49.35 6.22Q49.38 6.29 49.38 6.29L49.38 6.29L48.66 6.83L48.66 6.83Q48.57 6.69 48.41 6.57L48.41 6.57L48.41 6.57Q48.29 6.45 48.11 6.37L48.11 6.37L48.11 6.37Q47.94 6.29 47.70 6.29L47.70 6.29L47.70 6.29Q47.25 6.29 46.94 6.41L46.94 6.41L46.94 6.41Q46.63 6.54 46.45 6.72L46.45 6.72L46.45 6.72Q46.47 6.82 46.48 6.93L46.48 6.93L46.48 6.93Q46.49 7.03 46.50 7.15L46.50 7.15L46.50 7.15Q46.51 7.27 46.51 7.39L46.51 7.39L46.51 12.10L44.69 12.10L44.69 7.34L44.69 7.34Q44.69 7.03 44.65 6.77L44.65 6.77L44.65 6.77Q44.62 6.51 44.52 6.32L44.52 6.32L44.52 6.32Q44.42 6.13 44.23 6.03L44.23 6.03L44.23 6.03Q44.03 5.94 43.72 5.94L43.72 5.94L43.58 5.94L43.58 5.52L44.97 5.52L44.97 5.52Q45.44 5.52 45.72 5.63L45.72 5.63L45.72 5.63Q45.99 5.75 46.14 6.03L46.14 6.03L46.14 6.03Q46.40 5.81 46.84 5.59L46.84 5.59L46.84 5.59Q47.28 5.38 47.91 5.38ZM54.29 10.70L54.29 6.43L54.29 6.43Q54.14 6.31 53.96 6.22L53.96 6.22L53.96 6.22Q53.80 6.15 53.59 6.08L53.59 6.08L53.59 6.08Q53.37 6.01 53.10 6.01L53.10 6.01L53.10 6.01Q52.71 6.01 52.44 6.22L52.44 6.22L52.44 6.22Q52.18 6.43 52.01 6.80L52.01 6.80L52.01 6.80Q51.84 7.18 51.77 7.69L51.77 7.69L51.77 7.69Q51.70 8.20 51.70 8.81L51.70 8.81L51.70 8.81Q51.70 9.41 51.77 9.92L51.77 9.92L51.77 9.92Q51.84 10.43 52.00 10.81L52.00 10.81L52.00 10.81Q52.15 11.19 52.41 11.40L52.41 11.40L52.41 11.40Q52.67 11.61 53.03 11.61L53.03 11.61L53.03 11.61Q53.35 11.61 53.59 11.47L53.59 11.47L53.59 11.47Q53.82 11.33 53.97 11.16L53.97 11.16L53.97 11.16Q54.15 10.96 54.29 10.70L54.29 10.70ZM54.29 5.80L54.29 4.68L54.29 4.68Q54.29 4.05 54.12 3.66L54.12 3.66L54.12 3.66Q53.94 3.28 53.31 3.28L53.31 3.28L53.17 3.28L53.17 2.86L54.85 2.86L54.85 2.86Q55.22 2.86 55.46 2.95L55.46 2.95L55.46 2.95Q55.71 3.04 55.85 3.25L55.85 3.25L55.85 3.25Q56.00 3.46 56.06 3.81L56.06 3.81L56.06 3.81Q56.11 4.16 56.11 4.68L56.11 4.68L56.11 12.10L54.92 12.10L54.43 11.47L54.36 11.47L54.36 11.47Q54.21 11.69 53.97 11.86L53.97 11.86L53.97 11.86Q53.77 12.01 53.47 12.12L53.47 12.12L53.47 12.12Q53.17 12.24 52.75 12.24L52.75 12.24L52.75 12.24Q52.01 12.24 51.46 11.97L51.46 11.97L51.46 11.97Q50.92 11.70 50.55 11.24L50.55 11.24L50.55 11.24Q50.18 10.78 49.99 10.15L49.99 10.15L49.99 10.15Q49.81 9.52 49.81 8.81L49.81 8.81L49.81 8.81Q49.81 8.09 49.99 7.46L49.99 7.46L49.99 7.46Q50.18 6.83 50.55 6.37L50.55 6.37L50.55 6.37Q50.93 5.91 51.50 5.64L51.50 5.64L51.50 5.64Q52.07 5.38 52.82 5.38L52.82 5.38L52.82 5.38Q53.16 5.38 53.43 5.45L53.43 5.45L53.43 5.45Q53.70 5.52 53.90 5.59L53.90 5.59L53.90 5.59Q54.12 5.68 54.29 5.80L54.29 5.80Z"></path></g><!----><g data-v-423bf9ae="" id="307fced6-1c9e-4406-99ff-194802198a35" transform="matrix(4.803586662404586,0,0,4.803586662404586,0.14261340152661717,-31.22538662899096)" stroke="none" fill="white"><path d="M16 19.586l7.496-12.954H8.504zM7.496 12.414L0 25.368h14.992zM24.504 12.414l-7.496 12.954H32z"></path></g><!----><g data-v-423bf9ae="" id="3389f10f-01f4-4dcf-9ab4-8db47fe50518" fill="white" transform="matrix(0.5318278988981934,0,0,0.5318278988981934,172.10865576721017,57.4525458451979)"><path d="M4.19 6.69L4.19 6.69L4.19 6.69Q3.63 6.69 3.33 6.38L3.33 6.38L3.33 6.38Q3.02 6.06 3.02 5.61L3.02 5.61L3.02 5.61Q3.02 5.50 3.06 5.35L3.06 5.35L3.06 5.35Q3.09 5.19 3.15 5.08L3.15 5.08L3.15 5.08Q3.33 5.17 3.69 5.20L3.69 5.20L3.69 5.20Q4.05 5.24 4.52 5.24L4.52 5.24L4.52 5.24Q5.24 5.24 6.14 5.17L6.14 5.17L6.14 5.17Q7.04 5.11 7.87 5.04L7.87 5.04L7.87 5.04Q8.69 4.97 9.32 4.91L9.32 4.91L9.32 4.91Q9.95 4.84 10.14 4.84L10.14 4.84L10.14 4.84Q10.65 4.84 10.88 5.23L10.88 5.23L10.88 5.23Q11.12 5.61 11.23 6.26L11.23 6.26L11.23 6.26Q10.86 6.23 10.51 6.21L10.51 6.21L10.51 6.21Q10.15 6.19 9.90 6.19L9.90 6.19L9.90 6.19Q9.45 6.19 9.00 6.22L9.00 6.22L9.00 6.22Q8.54 6.24 8.08 6.30L8.08 6.30L8.08 6.30Q7.88 6.71 7.64 7.26L7.64 7.26L7.64 7.26Q7.41 7.81 7.17 8.41L7.17 8.41L7.17 8.41Q6.94 9.02 6.73 9.61L6.73 9.61L6.73 9.61Q6.52 10.21 6.37 10.68L6.37 10.68L6.37 10.68Q6.06 11.61 5.83 12.39L5.83 12.39L5.83 12.39Q5.60 13.17 5.42 13.85L5.42 13.85L5.42 13.85Q5.25 14.53 5.12 15.15L5.12 15.15L5.12 15.15Q5.00 15.76 4.90 16.35L4.90 16.35L4.90 16.35Q3.96 16.21 3.33 15.18L3.33 15.18L3.33 15.18Q3.44 14.74 3.60 14.23L3.60 14.23L3.60 14.23Q3.77 13.72 3.98 13.07L3.98 13.07L3.98 13.07Q4.20 12.42 4.49 11.59L4.49 11.59L4.49 11.59Q4.79 10.77 5.17 9.72L5.17 9.72L5.17 9.72Q5.31 9.32 5.46 8.90L5.46 8.90L5.46 8.90Q5.61 8.47 5.76 8.05L5.76 8.05L5.76 8.05Q5.91 7.63 6.03 7.24L6.03 7.24L6.03 7.24Q6.15 6.85 6.23 6.52L6.23 6.52L6.23 6.52Q5.64 6.59 5.12 6.64L5.12 6.64L5.12 6.64Q4.59 6.69 4.19 6.69ZM22.11 14.36L22.11 14.36L22.11 14.36Q22.11 13.78 22.30 12.85L22.30 12.85L22.30 12.85Q22.50 11.93 22.82 10.88L22.82 10.88L22.82 10.88Q21.90 10.95 20.96 11.06L20.96 11.06L20.96 11.06Q20.03 11.17 19.35 11.19L19.35 11.19L19.35 11.19Q18.72 12.66 18.35 13.89L18.35 13.89L18.35 13.89Q17.98 15.13 17.77 16.31L17.77 16.31L17.77 16.31Q17.23 16.18 16.88 15.87L16.88 15.87L16.88 15.87Q16.53 15.55 16.24 15.08L16.24 15.08L16.24 15.08Q16.35 14.85 16.50 14.50L16.50 14.50L16.50 14.50Q16.65 14.15 16.85 13.66L16.85 13.66L16.85 13.66Q17.05 13.16 17.31 12.50L17.31 12.50L17.31 12.50Q17.57 11.83 17.91 10.95L17.91 10.95L17.91 10.95Q17.44 10.75 17.29 10.40L17.29 10.40L17.29 10.40Q17.36 10.35 17.61 10.28L17.61 10.28L17.61 10.28Q17.85 10.22 18.21 10.15L18.21 10.15L18.40 9.70L18.40 9.70Q18.69 8.95 18.88 8.43L18.88 8.43L18.88 8.43Q19.07 7.91 19.20 7.41L19.20 7.41L19.20 7.41Q19.33 6.92 19.45 6.31L19.45 6.31L19.45 6.31Q19.57 5.71 19.74 4.79L19.74 4.79L19.74 4.79Q20.33 4.90 20.81 5.31L20.81 5.31L20.81 5.31Q21.29 5.71 21.64 6.29L21.64 6.29L21.64 6.29Q21.52 6.45 21.34 6.79L21.34 6.79L21.34 6.79Q21.15 7.13 20.94 7.59L20.94 7.59L20.94 7.59Q20.72 8.06 20.47 8.64L20.47 8.64L20.47 8.64Q20.22 9.23 19.92 9.87L19.92 9.87L19.92 9.87Q20.79 9.76 21.68 9.66L21.68 9.66L21.68 9.66Q22.57 9.56 23.25 9.52L23.25 9.52L23.25 9.52Q23.51 8.79 23.78 8.10L23.78 8.10L23.78 8.10Q24.05 7.41 24.32 6.83L24.32 6.83L24.32 6.83Q24.58 6.26 24.83 5.82L24.83 5.82L24.83 5.82Q25.07 5.39 25.27 5.18L25.27 5.18L25.27 5.18Q25.41 5.19 25.64 5.29L25.64 5.29L25.64 5.29Q25.87 5.38 26.11 5.50L26.11 5.50L26.11 5.50Q26.35 5.63 26.54 5.78L26.54 5.78L26.54 5.78Q26.74 5.92 26.81 6.05L26.81 6.05L26.81 6.05Q26.56 6.29 26.31 6.66L26.31 6.66L26.31 6.66Q26.05 7.04 25.81 7.53L25.81 7.53L25.81 7.53Q25.56 8.02 25.33 8.60L25.33 8.60L25.33 8.60Q25.09 9.17 24.88 9.79L24.88 9.79L24.88 9.79Q25.16 10.04 25.16 10.42L25.16 10.42L25.16 10.42Q25.16 10.68 25.05 10.91L25.05 10.91L25.05 10.91Q24.92 10.88 24.79 10.87L24.79 10.87L24.79 10.87Q24.67 10.86 24.53 10.85L24.53 10.85L24.53 10.85Q24.29 11.61 24.09 12.35L24.09 12.35L24.09 12.35Q23.90 13.09 23.77 13.76L23.77 13.76L23.77 13.76Q23.63 14.43 23.55 14.99L23.55 14.99L23.55 14.99Q23.48 15.55 23.48 15.93L23.48 15.93L23.48 15.93Q23.48 16.07 23.48 16.16L23.48 16.16L23.48 16.16Q23.49 16.24 23.51 16.30L23.51 16.30L23.51 16.30Q23.20 16.28 23.06 16.19L23.06 16.19L23.06 16.19Q22.92 16.10 22.85 16.00L22.85 16.00L22.85 16.00Q22.78 15.89 22.72 15.79L22.72 15.79L22.72 15.79Q22.67 15.68 22.54 15.62L22.54 15.62L22.54 15.62Q22.44 15.58 22.36 15.43L22.36 15.43L22.36 15.43Q22.27 15.27 22.22 15.08L22.22 15.08L22.22 15.08Q22.16 14.88 22.13 14.69L22.13 14.69L22.13 14.69Q22.11 14.49 22.11 14.36ZM38.88 9.21L38.88 9.21L38.88 9.21Q39.34 9.21 39.60 9.46L39.60 9.46L39.60 9.46Q39.86 9.72 39.86 10.16L39.86 10.16L39.86 10.16Q39.86 10.28 39.84 10.39L39.84 10.39L39.84 10.39Q39.82 10.51 39.79 10.60L39.79 10.60L39.79 10.60Q39.61 10.57 39.38 10.55L39.38 10.55L39.38 10.55Q39.16 10.53 38.85 10.53L38.85 10.53L38.85 10.53Q38.25 10.53 37.63 10.63L37.63 10.63L37.63 10.63Q37.02 10.74 36.46 10.81L36.46 10.81L36.46 10.81Q36.13 11.55 35.87 12.24L35.87 12.24L35.87 12.24Q35.60 12.94 35.41 13.51L35.41 13.51L35.41 13.51Q35.22 14.08 35.12 14.50L35.12 14.50L35.12 14.50Q35.01 14.92 35 15.13L35 15.13L35 15.13Q36.13 14.90 37.29 14.73L37.29 14.73L37.29 14.73Q38.44 14.56 39.72 14.48L39.72 14.48L39.72 14.48Q39.87 14.71 39.98 14.99L39.98 14.99L39.98 14.99Q40.08 15.27 40.08 15.60L40.08 15.60L40.08 15.60Q40.08 15.68 40.08 15.78L40.08 15.78L40.08 15.78Q40.08 15.88 40.05 15.97L40.05 15.97L40.05 15.97Q39.66 15.96 39.23 15.95L39.23 15.95L39.23 15.95Q38.79 15.95 38.09 15.95L38.09 15.95L38.09 15.95Q37.63 15.95 37.22 15.97L37.22 15.97L37.22 15.97Q36.81 15.99 36.39 16.03L36.39 16.03L36.39 16.03Q35.97 16.07 35.50 16.14L35.50 16.14L35.50 16.14Q35.03 16.21 34.44 16.31L34.44 16.31L34.44 16.31Q33.80 16.06 33.19 15.08L33.19 15.08L33.19 15.08Q33.43 14.57 33.86 13.54L33.86 13.54L33.86 13.54Q34.29 12.52 34.94 10.79L34.94 10.79L34.94 10.79Q34.31 10.60 34.12 10.09L34.12 10.09L34.12 10.09Q34.19 10.02 34.52 9.92L34.52 9.92L34.52 9.92Q34.86 9.81 35.35 9.70L35.35 9.70L35.35 9.70Q35.56 9.16 35.71 8.75L35.71 8.75L35.71 8.75Q35.85 8.34 35.97 7.99L35.97 7.99L35.97 7.99Q36.08 7.63 36.17 7.29L36.17 7.29L36.17 7.29Q36.26 6.94 36.34 6.54L36.34 6.54L36.34 6.54Q35.85 6.51 35.57 6.27L35.57 6.27L35.57 6.27Q35.29 6.02 35.29 5.63L35.29 5.63L35.29 5.63Q35.29 5.52 35.33 5.36L35.33 5.36L35.33 5.36Q35.36 5.21 35.41 5.10L35.41 5.10L35.41 5.10Q35.69 5.14 35.95 5.15L35.95 5.15L35.95 5.15Q36.20 5.17 36.62 5.17L36.62 5.17L36.62 5.17Q37.51 5.17 38.28 5.12L38.28 5.12L38.28 5.12Q39.05 5.07 39.67 5.01L39.67 5.01L39.67 5.01Q40.29 4.96 40.74 4.91L40.74 4.91L40.74 4.91Q41.19 4.86 41.43 4.86L41.43 4.86L41.43 4.86Q41.75 4.86 42 5.19L42 5.19L42 5.19Q42.25 5.53 42.38 6.15L42.38 6.15L42.38 6.15Q41.94 6.10 41.67 6.09L41.67 6.09L41.67 6.09Q41.40 6.08 41.19 6.08L41.19 6.08L41.19 6.08Q40.42 6.08 39.78 6.15L39.78 6.15L39.78 6.15Q39.14 6.23 38.56 6.31L38.56 6.31L38.56 6.31Q38.47 6.44 38.37 6.64L38.37 6.64L38.37 6.64Q38.26 6.83 38.09 7.18L38.09 7.18L38.09 7.18Q37.93 7.53 37.68 8.06L37.68 8.06L37.68 8.06Q37.44 8.60 37.09 9.39L37.09 9.39L37.09 9.39Q37.62 9.31 38.09 9.26L38.09 9.26L38.09 9.26Q38.56 9.21 38.88 9.21ZM64.74 9.21L64.74 9.21L64.74 9.21Q65.20 9.21 65.46 9.46L65.46 9.46L65.46 9.46Q65.72 9.72 65.72 10.16L65.72 10.16L65.72 10.16Q65.72 10.28 65.69 10.39L65.69 10.39L65.69 10.39Q65.67 10.51 65.65 10.60L65.65 10.60L65.65 10.60Q65.46 10.57 65.24 10.55L65.24 10.55L65.24 10.55Q65.02 10.53 64.71 10.53L64.71 10.53L64.71 10.53Q64.11 10.53 63.49 10.63L63.49 10.63L63.49 10.63Q62.87 10.74 62.31 10.81L62.31 10.81L62.31 10.81Q61.99 11.55 61.73 12.24L61.73 12.24L61.73 12.24Q61.46 12.94 61.27 13.51L61.27 13.51L61.27 13.51Q61.08 14.08 60.98 14.50L60.98 14.50L60.98 14.50Q60.87 14.92 60.86 15.13L60.86 15.13L60.86 15.13Q61.99 14.90 63.15 14.73L63.15 14.73L63.15 14.73Q64.30 14.56 65.58 14.48L65.58 14.48L65.58 14.48Q65.73 14.71 65.83 14.99L65.83 14.99L65.83 14.99Q65.94 15.27 65.94 15.60L65.94 15.60L65.94 15.60Q65.94 15.68 65.94 15.78L65.94 15.78L65.94 15.78Q65.94 15.88 65.91 15.97L65.91 15.97L65.91 15.97Q65.52 15.96 65.09 15.95L65.09 15.95L65.09 15.95Q64.65 15.95 63.95 15.95L63.95 15.95L63.95 15.95Q63.49 15.95 63.08 15.97L63.08 15.97L63.08 15.97Q62.66 15.99 62.24 16.03L62.24 16.03L62.24 16.03Q61.82 16.07 61.35 16.14L61.35 16.14L61.35 16.14Q60.89 16.21 60.30 16.31L60.30 16.31L60.30 16.31Q59.65 16.06 59.05 15.08L59.05 15.08L59.05 15.08Q59.29 14.57 59.72 13.54L59.72 13.54L59.72 13.54Q60.14 12.52 60.80 10.79L60.80 10.79L60.80 10.79Q60.17 10.60 59.98 10.09L59.98 10.09L59.98 10.09Q60.05 10.02 60.38 9.92L60.38 9.92L60.38 9.92Q60.72 9.81 61.21 9.70L61.21 9.70L61.21 9.70Q61.42 9.16 61.56 8.75L61.56 8.75L61.56 8.75Q61.71 8.34 61.82 7.99L61.82 7.99L61.82 7.99Q61.94 7.63 62.03 7.29L62.03 7.29L62.03 7.29Q62.12 6.94 62.20 6.54L62.20 6.54L62.20 6.54Q61.71 6.51 61.43 6.27L61.43 6.27L61.43 6.27Q61.15 6.02 61.15 5.63L61.15 5.63L61.15 5.63Q61.15 5.52 61.19 5.36L61.19 5.36L61.19 5.36Q61.22 5.21 61.26 5.10L61.26 5.10L61.26 5.10Q61.54 5.14 61.80 5.15L61.80 5.15L61.80 5.15Q62.06 5.17 62.48 5.17L62.48 5.17L62.48 5.17Q63.36 5.17 64.13 5.12L64.13 5.12L64.13 5.12Q64.90 5.07 65.53 5.01L65.53 5.01L65.53 5.01Q66.15 4.96 66.60 4.91L66.60 4.91L66.60 4.91Q67.05 4.86 67.28 4.86L67.28 4.86L67.28 4.86Q67.61 4.86 67.86 5.19L67.86 5.19L67.86 5.19Q68.11 5.53 68.24 6.15L68.24 6.15L68.24 6.15Q67.80 6.10 67.53 6.09L67.53 6.09L67.53 6.09Q67.26 6.08 67.05 6.08L67.05 6.08L67.05 6.08Q66.28 6.08 65.64 6.15L65.64 6.15L65.64 6.15Q65.00 6.23 64.41 6.31L64.41 6.31L64.41 6.31Q64.33 6.44 64.22 6.64L64.22 6.64L64.22 6.64Q64.12 6.83 63.95 7.18L63.95 7.18L63.95 7.18Q63.78 7.53 63.54 8.06L63.54 8.06L63.54 8.06Q63.29 8.60 62.94 9.39L62.94 9.39L62.94 9.39Q63.48 9.31 63.95 9.26L63.95 9.26L63.95 9.26Q64.41 9.21 64.74 9.21ZM75.11 16.24L75.11 16.24L75.11 16.24Q74.44 16.04 74.18 15.85L74.18 15.85L74.18 15.85Q73.92 15.65 73.92 15.36L73.92 15.36L73.92 15.36Q73.92 15.13 74.05 14.73L74.05 14.73L74.05 14.73Q74.17 14.32 74.42 13.77L74.42 13.77L74.42 13.77Q74.66 13.22 75.00 12.54L75.00 12.54L75.00 12.54Q75.35 11.87 75.78 11.10L75.78 11.10L75.78 11.10Q75.42 11.09 75.13 11.08L75.13 11.08L75.13 11.08Q74.84 11.07 74.66 11.07L74.66 11.07L74.66 11.07Q74.75 10.86 75.14 10.71L75.14 10.71L75.14 10.71Q75.53 10.56 76.17 10.44L76.17 10.44L76.17 10.44Q76.72 9.53 77.34 8.71L77.34 8.71L77.34 8.71Q77.97 7.88 78.60 7.19L78.60 7.19L78.60 7.19Q79.23 6.50 79.86 5.97L79.86 5.97L79.86 5.97Q80.49 5.45 81.06 5.14L81.06 5.14L81.06 5.14Q81.07 5.04 81.08 4.97L81.08 4.97L81.08 4.97Q81.09 4.90 81.09 4.87L81.09 4.87L81.09 4.87Q81.28 4.87 81.61 4.97L81.61 4.97L81.61 4.97Q81.94 5.07 82.26 5.21L82.26 5.21L82.26 5.21Q82.57 5.35 82.82 5.49L82.82 5.49L82.82 5.49Q83.06 5.64 83.09 5.74L83.09 5.74L83.09 5.74Q82.63 6.55 82.18 8.17L82.18 8.17L82.18 8.17Q81.73 9.79 81.44 12.04L81.44 12.04L81.44 12.04Q81.37 12.60 81.32 13.31L81.32 13.31L81.32 13.31Q81.27 14.03 81.27 14.91L81.27 14.91L81.27 14.91Q81.27 15.22 81.27 15.54L81.27 15.54L81.27 15.54Q81.27 15.86 81.30 16.21L81.30 16.21L81.30 16.21Q81.27 16.23 81.24 16.23L81.24 16.23L81.24 16.23Q81.21 16.23 81.13 16.23L81.13 16.23L81.13 16.23Q80.93 16.23 80.67 16.16L80.67 16.16L80.67 16.16Q80.42 16.10 80.17 16.01L80.17 16.01L80.17 16.01Q79.93 15.92 79.75 15.81L79.75 15.81L79.75 15.81Q79.58 15.69 79.53 15.61L79.53 15.61L79.53 15.61Q79.52 15.43 79.52 15.25L79.52 15.25L79.52 15.25Q79.52 15.08 79.52 14.88L79.52 14.88L79.52 14.88Q79.52 14.01 79.58 13.12L79.58 13.12L79.58 13.12Q79.65 12.22 79.80 11.27L79.80 11.27L79.80 11.27Q79.60 11.26 79.28 11.23L79.28 11.23L79.28 11.23Q78.96 11.21 78.56 11.20L78.56 11.20L78.56 11.20Q78.16 11.19 77.71 11.16L77.71 11.16L77.71 11.16Q77.25 11.14 76.82 11.13L76.82 11.13L76.82 11.13Q76.48 11.76 76.19 12.38L76.19 12.38L76.19 12.38Q75.89 13.01 75.68 13.64L75.68 13.64L75.68 13.64Q75.45 14.31 75.30 14.98L75.30 14.98L75.30 14.98Q75.15 15.65 75.11 16.24ZM80.51 7.83L80.51 7.83L80.51 7.83Q80.57 7.63 80.65 7.29L80.65 7.29L80.65 7.29Q80.72 6.94 80.79 6.57L80.79 6.57L80.79 6.57Q80.44 6.69 80.02 7.03L80.02 7.03L80.02 7.03Q79.59 7.36 79.14 7.86L79.14 7.86L79.14 7.86Q78.68 8.36 78.21 8.98L78.21 8.98L78.21 8.98Q77.74 9.60 77.31 10.30L77.31 10.30L77.31 10.30Q78.48 10.21 79.98 10.18L79.98 10.18L79.98 10.18Q80.09 9.59 80.23 9.01L80.23 9.01L80.23 9.01Q80.36 8.43 80.51 7.83ZM99.50 5.74L99.50 5.74L99.50 5.74Q99.54 5.98 99.56 6.07L99.56 6.07L99.56 6.07Q99.58 6.16 99.58 6.31L99.58 6.31L99.58 6.31Q99.58 6.78 99.38 7.18L99.38 7.18L99.38 7.18Q99.18 7.57 98.83 7.74L98.83 7.74L98.83 7.74Q98.55 7.36 98.14 7.09L98.14 7.09L98.14 7.09Q97.73 6.82 97.25 6.64L97.25 6.64L97.25 6.64Q96.77 6.47 96.25 6.38L96.25 6.38L96.25 6.38Q95.73 6.30 95.24 6.30L95.24 6.30L95.24 6.30Q94.75 6.30 94.33 6.38L94.33 6.38L94.33 6.38Q93.90 6.45 93.57 6.59L93.57 6.59L93.57 6.59Q93.24 6.72 93.05 6.92L93.05 6.92L93.05 6.92Q92.86 7.11 92.86 7.36L92.86 7.36L92.86 7.36Q92.90 7.67 93.24 7.99L93.24 7.99L93.24 7.99Q93.58 8.30 94.07 8.60L94.07 8.60L94.07 8.60Q94.56 8.90 95.15 9.20L95.15 9.20L95.15 9.20Q95.75 9.49 96.32 9.76L96.32 9.76L96.32 9.76Q97.03 10.09 97.55 10.38L97.55 10.38L97.55 10.38Q98.07 10.67 98.41 11.01L98.41 11.01L98.41 11.01Q98.74 11.35 98.91 11.79L98.91 11.79L98.91 11.79Q99.08 12.22 99.08 12.84L99.08 12.84L99.08 12.84Q99.08 13.55 98.84 14.18L98.84 14.18L98.84 14.18Q98.60 14.80 98.15 15.26L98.15 15.26L98.15 15.26Q97.69 15.72 97.05 15.98L97.05 15.98L97.05 15.98Q96.40 16.24 95.61 16.24L95.61 16.24L95.61 16.24Q94.82 16.24 93.91 16.00L93.91 16.00L93.91 16.00Q93.00 15.76 92.21 15.35L92.21 15.35L92.21 15.35Q91.42 14.94 90.90 14.40L90.90 14.40L90.90 14.40Q90.37 13.86 90.37 13.26L90.37 13.26L90.37 13.26Q90.37 12.98 90.53 12.54L90.53 12.54L90.53 12.54Q90.69 12.11 91.11 11.63L91.11 11.63L91.11 11.63Q91.15 12.05 91.57 12.63L91.57 12.63L91.57 12.63Q91.98 13.20 92.81 13.69L92.81 13.69L92.81 13.69Q93.58 14.14 94.40 14.34L94.40 14.34L94.40 14.34Q95.21 14.55 95.93 14.55L95.93 14.55L95.93 14.55Q96.71 14.55 97.20 14.35L97.20 14.35L97.20 14.35Q97.69 14.15 97.97 13.88L97.97 13.88L97.97 13.88Q98.25 13.61 98.36 13.33L98.36 13.33L98.36 13.33Q98.48 13.05 98.49 12.88L98.49 12.88L98.49 12.88Q98.48 12.60 98.23 12.34L98.23 12.34L98.23 12.34Q97.99 12.08 97.57 11.84L97.57 11.84L97.57 11.84Q97.16 11.59 96.61 11.34L96.61 11.34L96.61 11.34Q96.07 11.09 95.48 10.84L95.48 10.84L95.48 10.84Q94.60 10.44 93.96 10.10L93.96 10.10L93.96 10.10Q93.32 9.76 92.91 9.40L92.91 9.40L92.91 9.40Q92.50 9.04 92.31 8.65L92.31 8.65L92.31 8.65Q92.12 8.26 92.12 7.76L92.12 7.76L92.12 7.76Q92.12 6.97 92.60 6.27L92.60 6.27L92.60 6.27Q93.07 5.57 93.97 5.21L93.97 5.21L93.97 5.21Q94.42 5.01 94.93 4.93L94.93 4.93L94.93 4.93Q95.44 4.84 95.93 4.84L95.93 4.84L95.93 4.84Q96.85 4.84 97.73 5.10L97.73 5.10L97.73 5.10Q98.62 5.35 99.50 5.74ZM111.59 10.35L111.59 10.35L111.59 10.35Q112.64 9.20 113.48 7.91L113.48 7.91L113.48 7.91Q114.31 6.62 115.02 5.01L115.02 5.01L115.02 5.01Q115.39 5.05 115.72 5.21L115.72 5.21L115.72 5.21Q116.06 5.36 116.26 5.56L116.26 5.56L116.26 5.56Q115.49 6.48 114.86 7.24L114.86 7.24L114.86 7.24Q114.24 7.99 113.72 8.66L113.72 8.66L113.72 8.66Q113.20 9.32 112.76 9.93L112.76 9.93L112.76 9.93Q112.32 10.54 111.90 11.16L111.90 11.16L111.90 11.16Q111.69 11.87 111.51 12.60L111.51 12.60L111.51 12.60Q111.33 13.33 111.19 13.99L111.19 13.99L111.19 13.99Q111.05 14.66 110.97 15.22L110.97 15.22L110.97 15.22Q110.89 15.79 110.89 16.20L110.89 16.20L110.89 16.20Q110.74 16.20 110.40 16.14L110.40 16.14L110.40 16.14Q110.07 16.07 109.72 15.99L109.72 15.99L109.72 15.99Q109.37 15.90 109.08 15.82L109.08 15.82L109.08 15.82Q108.79 15.74 108.74 15.68L108.74 15.68L108.74 15.68Q108.96 15.30 109.18 14.75L109.18 14.75L109.18 14.75Q109.40 14.20 109.61 13.59L109.61 13.59L109.61 13.59Q109.82 12.98 110.01 12.36L110.01 12.36L110.01 12.36Q110.21 11.73 110.38 11.20L110.38 11.20L110.38 11.20Q110.03 10.11 109.70 9.15L109.70 9.15L109.70 9.15Q109.37 8.19 109.06 7.41L109.06 7.41L109.06 7.41Q108.75 6.64 108.47 6.08L108.47 6.08L108.47 6.08Q108.19 5.52 107.94 5.22L107.94 5.22L107.94 5.22Q108.08 5.17 108.37 5.11L108.37 5.11L108.37 5.11Q108.65 5.05 109.00 5.00L109.00 5.00L109.00 5.00Q109.34 4.94 109.70 4.91L109.70 4.91L109.70 4.91Q110.05 4.87 110.33 4.86L110.33 4.86L110.33 4.86Q110.33 5.21 110.40 5.71L110.40 5.71L110.40 5.71Q110.46 6.22 110.57 6.79L110.57 6.79L110.57 6.79Q110.67 7.36 110.81 7.95L110.81 7.95L110.81 7.95Q110.95 8.54 111.09 9.03L111.09 9.03L111.09 9.03Q111.23 9.52 111.36 9.88L111.36 9.88L111.36 9.88Q111.50 10.23 111.59 10.35ZM133.28 14.45L133.28 14.45L133.28 14.45Q133.49 13.99 133.78 13.26L133.78 13.26L133.78 13.26Q134.08 12.53 134.40 11.68L134.40 11.68L134.40 11.68Q134.72 10.84 135.06 9.95L135.06 9.95L135.06 9.95Q135.39 9.06 135.69 8.26L135.69 8.26L135.69 8.26Q135.98 7.46 136.20 6.83L136.20 6.83L136.20 6.83Q136.42 6.20 136.51 5.87L136.51 5.87L136.51 5.87Q135.63 6.23 135.00 6.97L135.00 6.97L135.00 6.97Q134.37 7.71 134.05 8.83L134.05 8.83L134.05 8.83Q133.73 8.72 133.46 8.43L133.46 8.43L133.46 8.43Q133.20 8.15 133.11 7.71L133.11 7.71L133.11 7.71Q133.25 7.07 133.64 6.54L133.64 6.54L133.64 6.54Q134.02 6.01 134.61 5.63L134.61 5.63L134.61 5.63Q135.20 5.25 135.97 5.05L135.97 5.05L135.97 5.05Q136.74 4.84 137.62 4.84L137.62 4.84L137.62 4.84Q138.74 4.84 139.68 5.17L139.68 5.17L139.68 5.17Q140.62 5.50 141.29 6.09L141.29 6.09L141.29 6.09Q141.96 6.68 142.34 7.50L142.34 7.50L142.34 7.50Q142.72 8.33 142.72 9.34L142.72 9.34L142.72 9.34Q142.72 10.71 142.21 11.96L142.21 11.96L142.21 11.96Q141.71 13.20 140.85 14.15L140.85 14.15L140.85 14.15Q139.99 15.11 138.85 15.67L138.85 15.67L138.85 15.67Q137.72 16.24 136.47 16.24L136.47 16.24L136.47 16.24Q135.32 16.24 134.50 15.79L134.50 15.79L134.50 15.79Q133.69 15.33 133.28 14.45ZM138.22 5.54L138.22 5.54L138.22 5.54Q137.52 5.54 136.89 5.74L136.89 5.74L136.89 5.74Q137.51 5.96 137.91 6.21L137.91 6.21L137.91 6.21Q138.32 6.45 138.47 6.59L138.47 6.59L138.47 6.59Q138.36 6.75 138.15 7.14L138.15 7.14L138.15 7.14Q137.93 7.53 137.64 8.09L137.64 8.09L137.64 8.09Q137.35 8.65 137.03 9.32L137.03 9.32L137.03 9.32Q136.71 9.98 136.40 10.68L136.40 10.68L136.40 10.68Q135.60 12.46 135.25 13.48L135.25 13.48L135.25 13.48Q134.89 14.50 134.89 14.90L134.89 14.90L134.89 14.90Q135.09 14.97 135.37 14.99L135.37 14.99L135.37 14.99Q135.65 15.02 135.97 15.02L135.97 15.02L135.97 15.02Q137.10 15.02 138.12 14.50L138.12 14.50L138.12 14.50Q139.13 13.97 139.90 13.09L139.90 13.09L139.90 13.09Q140.66 12.21 141.10 11.04L141.10 11.04L141.10 11.04Q141.54 9.87 141.54 8.58L141.54 8.58L141.54 8.58Q141.54 7.14 140.64 6.34L140.64 6.34L140.64 6.34Q139.75 5.54 138.22 5.54ZM150.65 14.38L150.65 14.38L150.65 14.38Q150.65 13.87 150.81 13.07L150.81 13.07L150.81 13.07Q150.98 12.26 151.23 11.33L151.23 11.33L151.23 11.33Q151.49 10.40 151.83 9.43L151.83 9.43L151.83 9.43Q152.17 8.46 152.52 7.60L152.52 7.60L152.52 7.60Q152.87 6.75 153.20 6.10L153.20 6.10L153.20 6.10Q153.54 5.46 153.80 5.18L153.80 5.18L153.80 5.18Q153.94 5.19 154.17 5.29L154.17 5.29L154.17 5.29Q154.41 5.38 154.64 5.50L154.64 5.50L154.64 5.50Q154.88 5.63 155.08 5.78L155.08 5.78L155.08 5.78Q155.27 5.92 155.33 6.05L155.33 6.05L155.33 6.05Q154.92 6.41 154.53 7.15L154.53 7.15L154.53 7.15Q154.13 7.88 153.75 8.82L153.75 8.82L153.75 8.82Q153.38 9.76 153.06 10.80L153.06 10.80L153.06 10.80Q152.74 11.84 152.50 12.82L152.50 12.82L152.50 12.82Q152.26 13.80 152.13 14.64L152.13 14.64L152.13 14.64Q152.00 15.48 152.00 16.00L152.00 16.00L152.00 16.00Q152.00 16.24 152.04 16.30L152.04 16.30L152.04 16.30Q151.73 16.28 151.59 16.19L151.59 16.19L151.59 16.19Q151.45 16.10 151.38 16.00L151.38 16.00L151.38 16.00Q151.30 15.89 151.23 15.79L151.23 15.79L151.23 15.79Q151.17 15.68 151.05 15.62L151.05 15.62L151.05 15.62Q150.95 15.58 150.88 15.43L150.88 15.43L150.88 15.43Q150.81 15.27 150.76 15.09L150.76 15.09L150.76 15.09Q150.71 14.90 150.68 14.70L150.68 14.70L150.68 14.70Q150.65 14.50 150.65 14.38ZM170.77 5.74L170.77 5.74L170.77 5.74Q170.81 5.98 170.83 6.07L170.83 6.07L170.83 6.07Q170.86 6.16 170.86 6.31L170.86 6.31L170.86 6.31Q170.86 6.78 170.65 7.18L170.65 7.18L170.65 7.18Q170.45 7.57 170.10 7.74L170.10 7.74L170.10 7.74Q169.82 7.36 169.41 7.09L169.41 7.09L169.41 7.09Q169.01 6.82 168.52 6.64L168.52 6.64L168.52 6.64Q168.04 6.47 167.52 6.38L167.52 6.38L167.52 6.38Q167.01 6.30 166.52 6.30L166.52 6.30L166.52 6.30Q166.03 6.30 165.60 6.38L165.60 6.38L165.60 6.38Q165.17 6.45 164.84 6.59L164.84 6.59L164.84 6.59Q164.51 6.72 164.32 6.92L164.32 6.92L164.32 6.92Q164.14 7.11 164.14 7.36L164.14 7.36L164.14 7.36Q164.18 7.67 164.51 7.99L164.51 7.99L164.51 7.99Q164.85 8.30 165.34 8.60L165.34 8.60L165.34 8.60Q165.83 8.90 166.42 9.20L166.42 9.20L166.42 9.20Q167.02 9.49 167.59 9.76L167.59 9.76L167.59 9.76Q168.31 10.09 168.83 10.38L168.83 10.38L168.83 10.38Q169.34 10.67 169.68 11.01L169.68 11.01L169.68 11.01Q170.02 11.35 170.18 11.79L170.18 11.79L170.18 11.79Q170.35 12.22 170.35 12.84L170.35 12.84L170.35 12.84Q170.35 13.55 170.11 14.18L170.11 14.18L170.11 14.18Q169.88 14.80 169.42 15.26L169.42 15.26L169.42 15.26Q168.97 15.72 168.32 15.98L168.32 15.98L168.32 15.98Q167.68 16.24 166.88 16.24L166.88 16.24L166.88 16.24Q166.10 16.24 165.19 16.00L165.19 16.00L165.19 16.00Q164.28 15.76 163.48 15.35L163.48 15.35L163.48 15.35Q162.69 14.94 162.17 14.40L162.17 14.40L162.17 14.40Q161.64 13.86 161.64 13.26L161.64 13.26L161.64 13.26Q161.64 12.98 161.80 12.54L161.80 12.54L161.80 12.54Q161.97 12.11 162.39 11.63L162.39 11.63L162.39 11.63Q162.43 12.05 162.84 12.63L162.84 12.63L162.84 12.63Q163.25 13.20 164.08 13.69L164.08 13.69L164.08 13.69Q164.85 14.14 165.67 14.34L165.67 14.34L165.67 14.34Q166.49 14.55 167.20 14.55L167.20 14.55L167.20 14.55Q167.99 14.55 168.48 14.35L168.48 14.35L168.48 14.35Q168.97 14.15 169.25 13.88L169.25 13.88L169.25 13.88Q169.53 13.61 169.64 13.33L169.64 13.33L169.64 13.33Q169.75 13.05 169.76 12.88L169.76 12.88L169.76 12.88Q169.75 12.60 169.50 12.34L169.50 12.34L169.50 12.34Q169.26 12.08 168.85 11.84L168.85 11.84L168.85 11.84Q168.43 11.59 167.89 11.34L167.89 11.34L167.89 11.34Q167.34 11.09 166.75 10.84L166.75 10.84L166.75 10.84Q165.87 10.44 165.23 10.10L165.23 10.10L165.23 10.10Q164.60 9.76 164.19 9.40L164.19 9.40L164.19 9.40Q163.77 9.04 163.58 8.65L163.58 8.65L163.58 8.65Q163.39 8.26 163.39 7.76L163.39 7.76L163.39 7.76Q163.39 6.97 163.87 6.27L163.87 6.27L163.87 6.27Q164.35 5.57 165.24 5.21L165.24 5.21L165.24 5.21Q165.69 5.01 166.20 4.93L166.20 4.93L166.20 4.93Q166.71 4.84 167.20 4.84L167.20 4.84L167.20 4.84Q168.13 4.84 169.01 5.10L169.01 5.10L169.01 5.10Q169.89 5.35 170.77 5.74ZM178.98 12.43L178.98 12.43L178.98 12.43Q178.98 11.45 179.21 10.51L179.21 10.51L179.21 10.51Q179.44 9.56 179.86 8.71L179.86 8.71L179.86 8.71Q180.28 7.87 180.86 7.16L180.86 7.16L180.86 7.16Q181.44 6.45 182.13 5.94L182.13 5.94L182.13 5.94Q182.83 5.42 183.61 5.13L183.61 5.13L183.61 5.13Q184.39 4.84 185.22 4.84L185.22 4.84L185.22 4.84Q186.19 4.84 186.72 5.25L186.72 5.25L186.72 5.25Q187.26 5.66 187.26 6.38L187.26 6.38L187.26 6.38Q187.26 6.66 187.19 6.96L187.19 6.96L187.19 6.96Q187.11 7.25 186.96 7.54L186.96 7.54L186.96 7.54Q186.82 7.83 186.62 8.09L186.62 8.09L186.62 8.09Q186.42 8.36 186.19 8.55L186.19 8.55L186.19 8.55Q185.82 8.50 185.56 8.22L185.56 8.22L185.56 8.22Q185.29 7.95 185.22 7.59L185.22 7.59L185.22 7.59Q185.71 7.18 186.00 6.74L186.00 6.74L186.00 6.74Q186.28 6.30 186.28 5.94L186.28 5.94L186.28 5.94Q186.28 5.32 185.51 5.32L185.51 5.32L185.51 5.32Q185.19 5.32 184.85 5.45L184.85 5.45L184.85 5.45Q184.51 5.59 184.16 5.82L184.16 5.82L184.16 5.82Q183.81 6.06 183.48 6.40L183.48 6.40L183.48 6.40Q183.15 6.73 182.87 7.14L182.87 7.14L182.87 7.14Q180.92 9.94 180.92 12.87L180.92 12.87L180.92 12.87Q180.92 13.90 181.24 14.53L181.24 14.53L181.24 14.53Q181.57 15.16 182.10 15.27L182.10 15.27L182.10 15.27Q182.70 15.13 183.62 14.50L183.62 14.50L183.62 14.50Q184.55 13.87 185.64 12.87L185.64 12.87L185.64 12.87Q185.78 13.01 185.81 13.16L185.81 13.16L185.81 13.16Q185.40 13.69 184.97 14.18L184.97 14.18L184.97 14.18Q184.53 14.67 184.11 15.08L184.11 15.08L184.11 15.08Q183.68 15.48 183.27 15.79L183.27 15.79L183.27 15.79Q182.85 16.10 182.50 16.27L182.50 16.27L182.50 16.27Q180.77 16.24 179.87 15.27L179.87 15.27L179.87 15.27Q178.98 14.31 178.98 12.43ZM200.31 4.98L200.31 4.98L200.31 4.98Q200.58 5.10 200.86 5.27L200.86 5.27L200.86 5.27Q201.14 5.45 201.38 5.63L201.38 5.63L201.38 5.63Q201.61 5.81 201.77 5.98L201.77 5.98L201.77 5.98Q201.94 6.16 201.95 6.27L201.95 6.27L201.95 6.27Q201.71 6.22 201.47 6.20L201.47 6.20L201.47 6.20Q201.24 6.17 201.04 6.17L201.04 6.17L201.04 6.17Q200.41 6.17 199.79 6.48L199.79 6.48L199.79 6.48Q199.16 6.79 198.60 7.32L198.60 7.32L198.60 7.32Q198.04 7.85 197.57 8.57L197.57 8.57L197.57 8.57Q197.09 9.28 196.75 10.09L196.75 10.09L196.75 10.09Q196.41 10.91 196.21 11.77L196.21 11.77L196.21 11.77Q196.01 12.64 196.01 13.48L196.01 13.48L196.01 13.48Q196.01 14.57 196.38 15.11L196.38 15.11L196.38 15.11Q196.74 15.64 197.44 15.64L197.44 15.64L197.44 15.64Q197.78 15.64 198.17 15.51L198.17 15.51L198.17 15.51Q198.56 15.37 198.97 15.13L198.97 15.13L198.97 15.13Q199.37 14.90 199.77 14.56L199.77 14.56L199.77 14.56Q200.16 14.22 200.49 13.82L200.49 13.82L200.49 13.82Q200.98 13.23 201.38 12.48L201.38 12.48L201.38 12.48Q201.77 11.73 202.04 10.89L202.04 10.89L202.04 10.89Q202.31 10.05 202.46 9.16L202.46 9.16L202.46 9.16Q202.61 8.27 202.61 7.42L202.61 7.42L202.61 7.42Q202.61 7.08 202.59 6.85L202.59 6.85L202.59 6.85Q202.58 6.62 202.56 6.46L202.56 6.46L202.56 6.46Q202.54 6.30 202.52 6.20L202.52 6.20L202.52 6.20Q202.51 6.10 202.50 6.03L202.50 6.03L202.50 6.03Q202.66 6.12 202.87 6.24L202.87 6.24L202.87 6.24Q203.07 6.36 203.24 6.59L203.24 6.59L203.24 6.59Q203.42 6.82 203.54 7.20L203.54 7.20L203.54 7.20Q203.66 7.57 203.66 8.18L203.66 8.18L203.66 8.18Q203.66 9.16 203.43 10.10L203.43 10.10L203.43 10.10Q203.20 11.05 202.78 11.90L202.78 11.90L202.78 11.90Q202.37 12.75 201.81 13.50L201.81 13.50L201.81 13.50Q201.25 14.24 200.61 14.80L200.61 14.80L200.61 14.80Q199.77 15.54 198.81 15.95L198.81 15.95L198.81 15.95Q197.86 16.35 196.98 16.35L196.98 16.35L196.98 16.35Q195.69 16.35 195.01 15.53L195.01 15.53L195.01 15.53Q194.33 14.71 194.33 13.12L194.33 13.12L194.33 13.12Q194.33 12.26 194.52 11.31L194.52 11.31L194.52 11.31Q194.71 10.36 195.05 9.44L195.05 9.44L195.05 9.44Q195.40 8.51 195.87 7.68L195.87 7.68L195.87 7.68Q196.35 6.85 196.92 6.21L196.92 6.21L196.92 6.21Q197.48 5.57 198.13 5.19L198.13 5.19L198.13 5.19Q198.79 4.82 199.47 4.82L199.47 4.82L199.47 4.82Q199.70 4.82 199.89 4.85L199.89 4.85L199.89 4.85Q200.09 4.89 200.31 4.98ZM220.50 7.46L220.50 7.46L220.50 7.46Q220.50 8.13 220.20 8.73L220.20 8.73L220.20 8.73Q219.90 9.32 219.37 9.79L219.37 9.79L219.37 9.79Q218.83 10.26 218.12 10.58L218.12 10.58L218.12 10.58Q217.41 10.91 216.57 11.02L216.57 11.02L216.57 11.02Q216.78 11.65 217.08 12.31L217.08 12.31L217.08 12.31Q217.38 12.98 217.73 13.59L217.73 13.59L217.73 13.59Q218.08 14.21 218.46 14.73L218.46 14.73L218.46 14.73Q218.83 15.25 219.20 15.58L219.20 15.58L219.20 15.58Q219.13 15.72 218.99 15.86L218.99 15.86L218.99 15.86Q218.86 16.00 218.69 16.12L218.69 16.12L218.69 16.12Q218.51 16.24 218.32 16.32L218.32 16.32L218.32 16.32Q218.13 16.39 217.97 16.39L217.97 16.39L217.97 16.39Q217.66 16.39 217.38 16.10L217.38 16.10L217.38 16.10Q217.10 15.81 216.81 15.17L216.81 15.17L216.81 15.17Q216.52 14.53 216.21 13.52L216.21 13.52L216.21 13.52Q215.89 12.50 215.52 11.07L215.52 11.07L215.52 11.07Q215.36 11.07 215.21 11.07L215.21 11.07L215.21 11.07Q215.05 11.07 214.97 11.05L214.97 11.05L214.97 11.05Q214.87 10.99 214.76 10.85L214.76 10.85L214.76 10.85Q214.38 11.66 214.09 12.38L214.09 12.38L214.09 12.38Q213.79 13.09 213.56 13.76L213.56 13.76L213.56 13.76Q213.33 14.42 213.16 15.04L213.16 15.04L213.16 15.04Q212.98 15.67 212.86 16.31L212.86 16.31L212.86 16.31Q212.38 16.20 212.03 15.90L212.03 15.90L212.03 15.90Q211.68 15.61 211.37 15.08L211.37 15.08L211.37 15.08Q211.43 14.95 211.49 14.83L211.49 14.83L211.49 14.83Q211.55 14.71 211.65 14.50L211.65 14.50L211.65 14.50Q211.75 14.28 211.90 13.94L211.90 13.94L211.90 13.94Q212.04 13.61 212.29 13.05L212.29 13.05L212.29 13.05Q212.53 12.49 212.88 11.68L212.88 11.68L212.88 11.68Q213.22 10.86 213.71 9.70L213.71 9.70L213.71 9.70Q213.93 9.18 214.09 8.79L214.09 8.79L214.09 8.79Q214.26 8.40 214.38 8.04L214.38 8.04L214.38 8.04Q214.51 7.69 214.61 7.33L214.61 7.33L214.61 7.33Q214.72 6.97 214.83 6.51L214.83 6.51L214.83 6.51Q214.19 6.73 213.63 7.01L213.63 7.01L213.63 7.01Q213.08 7.28 212.72 7.59L212.72 7.59L212.72 7.59Q212.59 7.50 212.46 7.34L212.46 7.34L212.46 7.34Q212.32 7.17 212.21 6.96L212.21 6.96L212.21 6.96Q212.10 6.76 212.02 6.55L212.02 6.55L212.02 6.55Q211.93 6.34 211.92 6.17L211.92 6.17L211.92 6.17Q212.34 5.89 212.95 5.66L212.95 5.66L212.95 5.66Q213.56 5.42 214.24 5.24L214.24 5.24L214.24 5.24Q214.93 5.07 215.64 4.97L215.64 4.97L215.64 4.97Q216.36 4.87 216.97 4.87L216.97 4.87L216.97 4.87Q218.65 4.87 219.58 5.56L219.58 5.56L219.58 5.56Q220.50 6.26 220.50 7.46ZM216.92 6.02L217.08 6.29L217.08 6.29Q216.99 6.41 216.78 6.79L216.78 6.79L216.78 6.79Q216.57 7.17 216.29 7.69L216.29 7.69L216.29 7.69Q216.02 8.22 215.72 8.83L215.72 8.83L215.72 8.83Q215.42 9.45 215.14 10.05L215.14 10.05L215.14 10.05Q216.19 10.05 217.07 9.86L217.07 9.86L217.07 9.86Q217.95 9.66 218.60 9.30L218.60 9.30L218.60 9.30Q219.24 8.95 219.60 8.46L219.60 8.46L219.60 8.46Q219.95 7.98 219.95 7.39L219.95 7.39L219.95 7.39Q219.95 6.69 219.45 6.32L219.45 6.32L219.45 6.32Q218.95 5.95 217.90 5.95L217.90 5.95L217.90 5.95Q217.66 5.95 217.42 5.97L217.42 5.97L217.42 5.97Q217.18 5.99 216.92 6.02L216.92 6.02ZM228.59 14.45L228.59 14.45L228.59 14.45Q228.80 13.99 229.10 13.26L229.10 13.26L229.10 13.26Q229.39 12.53 229.71 11.68L229.71 11.68L229.71 11.68Q230.03 10.84 230.37 9.95L230.37 9.95L230.37 9.95Q230.71 9.06 231.00 8.26L231.00 8.26L231.00 8.26Q231.29 7.46 231.51 6.83L231.51 6.83L231.51 6.83Q231.73 6.20 231.83 5.87L231.83 5.87L231.83 5.87Q230.94 6.23 230.31 6.97L230.31 6.97L230.31 6.97Q229.68 7.71 229.36 8.83L229.36 8.83L229.36 8.83Q229.04 8.72 228.77 8.43L228.77 8.43L228.77 8.43Q228.51 8.15 228.42 7.71L228.42 7.71L228.42 7.71Q228.56 7.07 228.95 6.54L228.95 6.54L228.95 6.54Q229.33 6.01 229.92 5.63L229.92 5.63L229.92 5.63Q230.51 5.25 231.28 5.05L231.28 5.05L231.28 5.05Q232.05 4.84 232.93 4.84L232.93 4.84L232.93 4.84Q234.05 4.84 234.99 5.17L234.99 5.17L234.99 5.17Q235.93 5.50 236.60 6.09L236.60 6.09L236.60 6.09Q237.27 6.68 237.65 7.50L237.65 7.50L237.65 7.50Q238.03 8.33 238.03 9.34L238.03 9.34L238.03 9.34Q238.03 10.71 237.52 11.96L237.52 11.96L237.52 11.96Q237.02 13.20 236.16 14.15L236.16 14.15L236.16 14.15Q235.30 15.11 234.16 15.67L234.16 15.67L234.16 15.67Q233.03 16.24 231.78 16.24L231.78 16.24L231.78 16.24Q230.64 16.24 229.82 15.79L229.82 15.79L229.82 15.79Q229.00 15.33 228.59 14.45ZM233.53 5.54L233.53 5.54L233.53 5.54Q232.83 5.54 232.20 5.74L232.20 5.74L232.20 5.74Q232.82 5.96 233.23 6.21L233.23 6.21L233.23 6.21Q233.63 6.45 233.79 6.59L233.79 6.59L233.79 6.59Q233.67 6.75 233.46 7.14L233.46 7.14L233.46 7.14Q233.24 7.53 232.95 8.09L232.95 8.09L232.95 8.09Q232.67 8.65 232.34 9.32L232.34 9.32L232.34 9.32Q232.02 9.98 231.71 10.68L231.71 10.68L231.71 10.68Q230.92 12.46 230.56 13.48L230.56 13.48L230.56 13.48Q230.20 14.50 230.20 14.90L230.20 14.90L230.20 14.90Q230.40 14.97 230.68 14.99L230.68 14.99L230.68 14.99Q230.96 15.02 231.28 15.02L231.28 15.02L231.28 15.02Q232.41 15.02 233.43 14.50L233.43 14.50L233.43 14.50Q234.44 13.97 235.21 13.09L235.21 13.09L235.21 13.09Q235.97 12.21 236.41 11.04L236.41 11.04L236.41 11.04Q236.85 9.87 236.85 8.58L236.85 8.58L236.85 8.58Q236.85 7.14 235.96 6.34L235.96 6.34L235.96 6.34Q235.06 5.54 233.53 5.54ZM256.51 16.24L256.51 16.24L256.51 16.24Q255.84 16.04 255.58 15.85L255.58 15.85L255.58 15.85Q255.32 15.65 255.32 15.36L255.32 15.36L255.32 15.36Q255.32 15.13 255.44 14.73L255.44 14.73L255.44 14.73Q255.57 14.32 255.81 13.77L255.81 13.77L255.81 13.77Q256.06 13.22 256.40 12.54L256.40 12.54L256.40 12.54Q256.75 11.87 257.18 11.10L257.18 11.10L257.18 11.10Q256.82 11.09 256.53 11.08L256.53 11.08L256.53 11.08Q256.24 11.07 256.06 11.07L256.06 11.07L256.06 11.07Q256.14 10.86 256.54 10.71L256.54 10.71L256.54 10.71Q256.93 10.56 257.57 10.44L257.57 10.44L257.57 10.44Q258.12 9.53 258.74 8.71L258.74 8.71L258.74 8.71Q259.36 7.88 259.99 7.19L259.99 7.19L259.99 7.19Q260.62 6.50 261.25 5.97L261.25 5.97L261.25 5.97Q261.88 5.45 262.46 5.14L262.46 5.14L262.46 5.14Q262.47 5.04 262.48 4.97L262.48 4.97L262.48 4.97Q262.49 4.90 262.49 4.87L262.49 4.87L262.49 4.87Q262.68 4.87 263.01 4.97L263.01 4.97L263.01 4.97Q263.34 5.07 263.65 5.21L263.65 5.21L263.65 5.21Q263.97 5.35 264.21 5.49L264.21 5.49L264.21 5.49Q264.46 5.64 264.49 5.74L264.49 5.74L264.49 5.74Q264.03 6.55 263.58 8.17L263.58 8.17L263.58 8.17Q263.13 9.79 262.84 12.04L262.84 12.04L262.84 12.04Q262.77 12.60 262.72 13.31L262.72 13.31L262.72 13.31Q262.67 14.03 262.67 14.91L262.67 14.91L262.67 14.91Q262.67 15.22 262.67 15.54L262.67 15.54L262.67 15.54Q262.67 15.86 262.70 16.21L262.70 16.21L262.70 16.21Q262.67 16.23 262.64 16.23L262.64 16.23L262.64 16.23Q262.61 16.23 262.53 16.23L262.53 16.23L262.53 16.23Q262.33 16.23 262.07 16.16L262.07 16.16L262.07 16.16Q261.81 16.10 261.57 16.01L261.57 16.01L261.57 16.01Q261.32 15.92 261.15 15.81L261.15 15.81L261.15 15.81Q260.97 15.69 260.93 15.61L260.93 15.61L260.93 15.61Q260.92 15.43 260.92 15.25L260.92 15.25L260.92 15.25Q260.92 15.08 260.92 14.88L260.92 14.88L260.92 14.88Q260.92 14.01 260.98 13.12L260.98 13.12L260.98 13.12Q261.04 12.22 261.20 11.27L261.20 11.27L261.20 11.27Q261.00 11.26 260.68 11.23L260.68 11.23L260.68 11.23Q260.36 11.21 259.96 11.20L259.96 11.20L259.96 11.20Q259.56 11.19 259.10 11.16L259.10 11.16L259.10 11.16Q258.65 11.14 258.22 11.13L258.22 11.13L258.22 11.13Q257.88 11.76 257.59 12.38L257.59 12.38L257.59 12.38Q257.29 13.01 257.08 13.64L257.08 13.64L257.08 13.64Q256.84 14.31 256.70 14.98L256.70 14.98L256.70 14.98Q256.55 15.65 256.51 16.24ZM261.91 7.83L261.91 7.83L261.91 7.83Q261.97 7.63 262.04 7.29L262.04 7.29L262.04 7.29Q262.12 6.94 262.19 6.57L262.19 6.57L262.19 6.57Q261.84 6.69 261.41 7.03L261.41 7.03L261.41 7.03Q260.99 7.36 260.53 7.86L260.53 7.86L260.53 7.86Q260.08 8.36 259.61 8.98L259.61 8.98L259.61 8.98Q259.14 9.60 258.71 10.30L258.71 10.30L258.71 10.30Q259.88 10.21 261.38 10.18L261.38 10.18L261.38 10.18Q261.49 9.59 261.62 9.01L261.62 9.01L261.62 9.01Q261.76 8.43 261.91 7.83ZM281.40 7.63L281.40 7.63L281.40 7.63Q281.40 8.40 281.01 9.10L281.01 9.10L281.01 9.10Q280.63 9.80 279.98 10.32L279.98 10.32L279.98 10.32Q279.33 10.85 278.45 11.16L278.45 11.16L278.45 11.16Q277.58 11.47 276.60 11.47L276.60 11.47L276.60 11.47Q276.25 11.47 276.05 11.38L276.05 11.38L276.05 11.38Q275.84 11.28 275.59 11.02L275.59 11.02L275.59 11.02Q274.89 12.54 274.45 13.82L274.45 13.82L274.45 13.82Q274.01 15.11 273.76 16.31L273.76 16.31L273.76 16.31Q273.22 16.18 272.89 15.87L272.89 15.87L272.89 15.87Q272.55 15.55 272.27 15.08L272.27 15.08L272.27 15.08Q272.41 14.81 272.61 14.38L272.61 14.38L272.61 14.38Q272.80 13.94 273.08 13.31L273.08 13.31L273.08 13.31Q273.36 12.67 273.74 11.78L273.74 11.78L273.74 11.78Q274.11 10.89 274.61 9.70L274.61 9.70L274.61 9.70Q274.83 9.16 275.00 8.75L275.00 8.75L275.00 8.75Q275.17 8.34 275.30 7.99L275.30 7.99L275.30 7.99Q275.42 7.63 275.53 7.28L275.53 7.28L275.53 7.28Q275.63 6.93 275.74 6.51L275.74 6.51L275.74 6.51Q275.09 6.72 274.53 7L274.53 7L274.53 7Q273.98 7.28 273.62 7.59L273.62 7.59L273.62 7.59Q273.49 7.50 273.36 7.34L273.36 7.34L273.36 7.34Q273.22 7.17 273.11 6.96L273.11 6.96L273.11 6.96Q273 6.76 272.92 6.55L272.92 6.55L272.92 6.55Q272.83 6.34 272.82 6.17L272.82 6.17L272.82 6.17Q273.22 5.89 273.83 5.66L273.83 5.66L273.83 5.66Q274.43 5.42 275.11 5.24L275.11 5.24L275.11 5.24Q275.80 5.07 276.54 4.97L276.54 4.97L276.54 4.97Q277.27 4.87 277.94 4.87L277.94 4.87L277.94 4.87Q278.74 4.87 279.38 5.07L279.38 5.07L279.38 5.07Q280.03 5.28 280.48 5.64L280.48 5.64L280.48 5.64Q280.92 6.01 281.16 6.51L281.16 6.51L281.16 6.51Q281.40 7.01 281.40 7.63ZM278.91 5.95L278.91 5.95L278.91 5.95Q278.38 5.95 277.82 6.03L277.82 6.03L277.98 6.29L277.98 6.29Q277.84 6.47 277.63 6.83L277.63 6.83L277.63 6.83Q277.42 7.20 277.17 7.71L277.17 7.71L277.17 7.71Q276.92 8.22 276.62 8.85L276.62 8.85L276.62 8.85Q276.32 9.48 275.98 10.18L275.98 10.18L275.98 10.18Q277.07 10.18 277.97 9.97L277.97 9.97L277.97 9.97Q278.87 9.77 279.50 9.41L279.50 9.41L279.50 9.41Q280.14 9.06 280.50 8.58L280.50 8.58L280.50 8.58Q280.85 8.11 280.85 7.56L280.85 7.56L280.85 7.56Q280.85 6.83 280.36 6.39L280.36 6.39L280.36 6.39Q279.87 5.95 278.91 5.95ZM288.27 14.38L288.27 14.38L288.27 14.38Q288.27 13.87 288.44 13.07L288.44 13.07L288.44 13.07Q288.60 12.26 288.86 11.33L288.86 11.33L288.86 11.33Q289.11 10.40 289.45 9.43L289.45 9.43L289.45 9.43Q289.79 8.46 290.14 7.60L290.14 7.60L290.14 7.60Q290.49 6.75 290.82 6.10L290.82 6.10L290.82 6.10Q291.16 5.46 291.42 5.18L291.42 5.18L291.42 5.18Q291.56 5.19 291.80 5.29L291.80 5.29L291.80 5.29Q292.03 5.38 292.26 5.50L292.26 5.50L292.26 5.50Q292.50 5.63 292.70 5.78L292.70 5.78L292.70 5.78Q292.89 5.92 292.95 6.05L292.95 6.05L292.95 6.05Q292.54 6.41 292.14 7.15L292.14 7.15L292.14 7.15Q291.75 7.88 291.38 8.82L291.38 8.82L291.38 8.82Q291.00 9.76 290.68 10.80L290.68 10.80L290.68 10.80Q290.36 11.84 290.12 12.82L290.12 12.82L290.12 12.82Q289.88 13.80 289.75 14.64L289.75 14.64L289.75 14.64Q289.62 15.48 289.62 16.00L289.62 16.00L289.62 16.00Q289.62 16.24 289.66 16.30L289.66 16.30L289.66 16.30Q289.35 16.28 289.21 16.19L289.21 16.19L289.21 16.19Q289.07 16.10 289.00 16.00L289.00 16.00L289.00 16.00Q288.92 15.89 288.86 15.79L288.86 15.79L288.86 15.79Q288.79 15.68 288.67 15.62L288.67 15.62L288.67 15.62Q288.57 15.58 288.50 15.43L288.50 15.43L288.50 15.43Q288.43 15.27 288.38 15.09L288.38 15.09L288.38 15.09Q288.33 14.90 288.30 14.70L288.30 14.70L288.30 14.70Q288.27 14.50 288.27 14.38ZM315.46 9.34L315.46 9.34L315.46 9.34Q315.91 9.34 316.17 9.59L316.17 9.59L316.17 9.59Q316.43 9.84 316.43 10.29L316.43 10.29L316.43 10.29Q316.43 10.40 316.41 10.52L316.41 10.52L316.41 10.52Q316.40 10.64 316.36 10.72L316.36 10.72L316.36 10.72Q316.18 10.70 315.95 10.68L315.95 10.68L315.95 10.68Q315.73 10.65 315.42 10.65L315.42 10.65L315.42 10.65Q314.79 10.65 314.16 10.77L314.16 10.77L314.16 10.77Q313.53 10.88 312.96 10.95L312.96 10.95L312.96 10.95Q312.33 12.43 311.92 13.73L311.92 13.73L311.92 13.73Q311.51 15.04 311.29 16.31L311.29 16.31L311.29 16.31Q310.81 16.20 310.45 15.90L310.45 15.90L310.45 15.90Q310.09 15.61 309.76 15.08L309.76 15.08L309.76 15.08Q309.86 14.85 310.00 14.54L310.00 14.54L310.00 14.54Q310.14 14.22 310.34 13.74L310.34 13.74L310.34 13.74Q310.53 13.26 310.81 12.56L310.81 12.56L310.81 12.56Q311.08 11.87 311.46 10.91L311.46 10.91L311.46 10.91Q310.87 10.71 310.69 10.22L310.69 10.22L310.69 10.22Q310.76 10.15 311.08 10.06L311.08 10.06L311.08 10.06Q311.40 9.97 311.86 9.86L311.86 9.86L311.86 9.86Q312.07 9.31 312.23 8.88L312.23 8.88L312.23 8.88Q312.38 8.46 312.51 8.07L312.51 8.07L312.51 8.07Q312.63 7.69 312.74 7.32L312.74 7.32L312.74 7.32Q312.84 6.94 312.93 6.52L312.93 6.52L312.86 6.52L312.86 6.52Q312.33 6.52 312.00 6.27L312.00 6.27L312.00 6.27Q311.67 6.02 311.67 5.61L311.67 5.61L311.67 5.61Q311.67 5.50 311.70 5.35L311.70 5.35L311.70 5.35Q311.74 5.19 311.79 5.08L311.79 5.08L311.79 5.08Q312.06 5.12 312.32 5.14L312.32 5.14L312.32 5.14Q312.58 5.15 313.00 5.15L313.00 5.15L313.00 5.15Q313.88 5.15 314.65 5.10L314.65 5.10L314.65 5.10Q315.42 5.05 316.04 5.00L316.04 5.00L316.04 5.00Q316.67 4.94 317.11 4.89L317.11 4.89L317.11 4.89Q317.56 4.84 317.80 4.84L317.80 4.84L317.80 4.84Q318.12 4.84 318.37 5.18L318.37 5.18L318.37 5.18Q318.63 5.52 318.77 6.13L318.77 6.13L318.77 6.13Q318.32 6.09 318.05 6.08L318.05 6.08L318.05 6.08Q317.77 6.06 317.56 6.06L317.56 6.06L317.56 6.06Q316.85 6.06 316.25 6.13L316.25 6.13L316.25 6.13Q315.66 6.19 315.13 6.27L315.13 6.27L315.13 6.27Q315.04 6.40 314.94 6.59L314.94 6.59L314.94 6.59Q314.83 6.79 314.66 7.15L314.66 7.15L314.66 7.15Q314.50 7.50 314.24 8.08L314.24 8.08L314.24 8.08Q313.98 8.65 313.59 9.53L313.59 9.53L313.59 9.53Q314.13 9.45 314.63 9.39L314.63 9.39L314.63 9.39Q315.13 9.34 315.46 9.34ZM330.76 4.98L330.76 4.98L330.76 4.98Q331.03 5.10 331.31 5.27L331.31 5.27L331.31 5.27Q331.59 5.45 331.83 5.63L331.83 5.63L331.83 5.63Q332.07 5.81 332.23 5.98L332.23 5.98L332.23 5.98Q332.39 6.16 332.40 6.27L332.40 6.27L332.40 6.27Q332.16 6.22 331.93 6.20L331.93 6.20L331.93 6.20Q331.69 6.17 331.49 6.17L331.49 6.17L331.49 6.17Q330.86 6.17 330.24 6.48L330.24 6.48L330.24 6.48Q329.62 6.79 329.06 7.32L329.06 7.32L329.06 7.32Q328.50 7.85 328.02 8.57L328.02 8.57L328.02 8.57Q327.54 9.28 327.20 10.09L327.20 10.09L327.20 10.09Q326.86 10.91 326.66 11.77L326.66 11.77L326.66 11.77Q326.47 12.64 326.47 13.48L326.47 13.48L326.47 13.48Q326.47 14.57 326.83 15.11L326.83 15.11L326.83 15.11Q327.19 15.64 327.89 15.64L327.89 15.64L327.89 15.64Q328.23 15.64 328.62 15.51L328.62 15.51L328.62 15.51Q329.01 15.37 329.42 15.13L329.42 15.13L329.42 15.13Q329.83 14.90 330.22 14.56L330.22 14.56L330.22 14.56Q330.61 14.22 330.95 13.82L330.95 13.82L330.95 13.82Q331.44 13.23 331.83 12.48L331.83 12.48L331.83 12.48Q332.22 11.73 332.49 10.89L332.49 10.89L332.49 10.89Q332.77 10.05 332.91 9.16L332.91 9.16L332.91 9.16Q333.06 8.27 333.06 7.42L333.06 7.42L333.06 7.42Q333.06 7.08 333.05 6.85L333.05 6.85L333.05 6.85Q333.03 6.62 333.01 6.46L333.01 6.46L333.01 6.46Q332.99 6.30 332.98 6.20L332.98 6.20L332.98 6.20Q332.96 6.10 332.95 6.03L332.95 6.03L332.95 6.03Q333.12 6.12 333.32 6.24L333.32 6.24L333.32 6.24Q333.52 6.36 333.70 6.59L333.70 6.59L333.70 6.59Q333.87 6.82 333.99 7.20L333.99 7.20L333.99 7.20Q334.11 7.57 334.11 8.18L334.11 8.18L334.11 8.18Q334.11 9.16 333.88 10.10L333.88 10.10L333.88 10.10Q333.65 11.05 333.24 11.90L333.24 11.90L333.24 11.90Q332.82 12.75 332.26 13.50L332.26 13.50L332.26 13.50Q331.70 14.24 331.06 14.80L331.06 14.80L331.06 14.80Q330.22 15.54 329.27 15.95L329.27 15.95L329.27 15.95Q328.31 16.35 327.43 16.35L327.43 16.35L327.43 16.35Q326.14 16.35 325.47 15.53L325.47 15.53L325.47 15.53Q324.79 14.71 324.79 13.12L324.79 13.12L324.79 13.12Q324.79 12.26 324.98 11.31L324.98 11.31L324.98 11.31Q325.16 10.36 325.51 9.44L325.51 9.44L325.51 9.44Q325.85 8.51 326.33 7.68L326.33 7.68L326.33 7.68Q326.80 6.85 327.37 6.21L327.37 6.21L327.37 6.21Q327.94 5.57 328.59 5.19L328.59 5.19L328.59 5.19Q329.24 4.82 329.92 4.82L329.92 4.82L329.92 4.82Q330.15 4.82 330.34 4.85L330.34 4.85L330.34 4.85Q330.54 4.89 330.76 4.98ZM350.95 7.46L350.95 7.46L350.95 7.46Q350.95 8.13 350.65 8.73L350.65 8.73L350.65 8.73Q350.35 9.32 349.82 9.79L349.82 9.79L349.82 9.79Q349.29 10.26 348.57 10.58L348.57 10.58L348.57 10.58Q347.86 10.91 347.02 11.02L347.02 11.02L347.02 11.02Q347.23 11.65 347.53 12.31L347.53 12.31L347.53 12.31Q347.83 12.98 348.18 13.59L348.18 13.59L348.18 13.59Q348.53 14.21 348.91 14.73L348.91 14.73L348.91 14.73Q349.29 15.25 349.65 15.58L349.65 15.58L349.65 15.58Q349.58 15.72 349.45 15.86L349.45 15.86L349.45 15.86Q349.31 16.00 349.14 16.12L349.14 16.12L349.14 16.12Q348.96 16.24 348.78 16.32L348.78 16.32L348.78 16.32Q348.59 16.39 348.42 16.39L348.42 16.39L348.42 16.39Q348.11 16.39 347.83 16.10L347.83 16.10L347.83 16.10Q347.55 15.81 347.26 15.17L347.26 15.17L347.26 15.17Q346.98 14.53 346.66 13.52L346.66 13.52L346.66 13.52Q346.35 12.50 345.97 11.07L345.97 11.07L345.97 11.07Q345.81 11.07 345.66 11.07L345.66 11.07L345.66 11.07Q345.51 11.07 345.42 11.05L345.42 11.05L345.42 11.05Q345.32 10.99 345.21 10.85L345.21 10.85L345.21 10.85Q344.83 11.66 344.54 12.38L344.54 12.38L344.54 12.38Q344.25 13.09 344.02 13.76L344.02 13.76L344.02 13.76Q343.78 14.42 343.61 15.04L343.61 15.04L343.61 15.04Q343.43 15.67 343.31 16.31L343.31 16.31L343.31 16.31Q342.83 16.20 342.48 15.90L342.48 15.90L342.48 15.90Q342.13 15.61 341.82 15.08L341.82 15.08L341.82 15.08Q341.88 14.95 341.94 14.83L341.94 14.83L341.94 14.83Q342.01 14.71 342.10 14.50L342.10 14.50L342.10 14.50Q342.20 14.28 342.35 13.94L342.35 13.94L342.35 13.94Q342.50 13.61 342.74 13.05L342.74 13.05L342.74 13.05Q342.99 12.49 343.33 11.68L343.33 11.68L343.33 11.68Q343.67 10.86 344.16 9.70L344.16 9.70L344.16 9.70Q344.39 9.18 344.55 8.79L344.55 8.79L344.55 8.79Q344.71 8.40 344.83 8.04L344.83 8.04L344.83 8.04Q344.96 7.69 345.07 7.33L345.07 7.33L345.07 7.33Q345.17 6.97 345.28 6.51L345.28 6.51L345.28 6.51Q344.64 6.73 344.09 7.01L344.09 7.01L344.09 7.01Q343.53 7.28 343.17 7.59L343.17 7.59L343.17 7.59Q343.04 7.50 342.91 7.34L342.91 7.34L342.91 7.34Q342.78 7.17 342.66 6.96L342.66 6.96L342.66 6.96Q342.55 6.76 342.47 6.55L342.47 6.55L342.47 6.55Q342.38 6.34 342.37 6.17L342.37 6.17L342.37 6.17Q342.79 5.89 343.40 5.66L343.40 5.66L343.40 5.66Q344.01 5.42 344.69 5.24L344.69 5.24L344.69 5.24Q345.38 5.07 346.09 4.97L346.09 4.97L346.09 4.97Q346.81 4.87 347.42 4.87L347.42 4.87L347.42 4.87Q349.10 4.87 350.03 5.56L350.03 5.56L350.03 5.56Q350.95 6.26 350.95 7.46ZM347.37 6.02L347.54 6.29L347.54 6.29Q347.44 6.41 347.23 6.79L347.23 6.79L347.23 6.79Q347.02 7.17 346.75 7.69L346.75 7.69L346.75 7.69Q346.47 8.22 346.17 8.83L346.17 8.83L346.17 8.83Q345.87 9.45 345.59 10.05L345.59 10.05L345.59 10.05Q346.64 10.05 347.52 9.86L347.52 9.86L347.52 9.86Q348.40 9.66 349.05 9.30L349.05 9.30L349.05 9.30Q349.69 8.95 350.05 8.46L350.05 8.46L350.05 8.46Q350.41 7.98 350.41 7.39L350.41 7.39L350.41 7.39Q350.41 6.69 349.90 6.32L349.90 6.32L349.90 6.32Q349.40 5.95 348.35 5.95L348.35 5.95L348.35 5.95Q348.11 5.95 347.87 5.97L347.87 5.97L347.87 5.97Q347.63 5.99 347.37 6.02L347.37 6.02ZM373.69 4.83L373.69 4.83L373.69 4.83Q374.22 4.83 374.79 5.03L374.79 5.03L374.79 5.03Q375.37 5.22 375.80 5.53L375.80 5.53L375.80 5.53Q375.66 6.24 375.54 6.82L375.54 6.82L375.54 6.82Q375.42 7.39 375.33 7.86L375.33 7.86L375.33 7.86Q375.23 8.33 375.14 8.71L375.14 8.71L375.14 8.71Q375.05 9.10 374.96 9.44L374.96 9.44L374.96 9.44Q374.63 10.70 374.27 11.71L374.27 11.71L374.27 11.71Q373.91 12.73 373.51 13.54L373.51 13.54L373.51 13.54Q373.11 14.35 372.67 14.98L372.67 14.98L372.67 14.98Q372.23 15.61 371.73 16.09L371.73 16.09L371.73 16.09Q371.24 16.55 370.75 16.84L370.75 16.84L370.75 16.84Q370.26 17.14 369.84 17.22L369.84 17.22L369.84 17.22Q369.28 17.22 368.80 17.09L368.80 17.09L368.80 17.09Q368.33 16.97 367.98 16.75L367.98 16.75L367.98 16.75Q367.64 16.53 367.45 16.23L367.45 16.23L367.45 16.23Q367.26 15.93 367.26 15.57L367.26 15.57L367.26 15.57Q367.26 15.18 367.46 14.58L367.46 14.58L367.46 14.58Q367.65 13.99 368.06 13.17L368.06 13.17L368.06 13.17Q368.23 13.19 368.45 13.26L368.45 13.26L368.45 13.26Q368.68 13.33 368.90 13.43L368.90 13.43L368.90 13.43Q369.12 13.52 369.31 13.64L369.31 13.64L369.31 13.64Q369.49 13.76 369.57 13.87L369.57 13.87L369.57 13.87Q369.12 14.34 368.84 14.89L368.84 14.89L368.84 14.89Q368.56 15.44 368.56 15.85L368.56 15.85L368.56 15.85Q368.56 16.09 368.65 16.27L368.65 16.27L368.65 16.27Q368.75 16.46 368.97 16.62L368.97 16.62L368.97 16.62Q369.82 16.30 370.64 15.42L370.64 15.42L370.64 15.42Q371.45 14.55 372.08 13.24L372.08 13.24L372.08 13.24Q372.46 12.47 372.76 11.48L372.76 11.48L372.76 11.48Q373.07 10.49 373.29 9.48L373.29 9.48L373.29 9.48Q373.51 8.48 373.63 7.57L373.63 7.57L373.63 7.57Q373.74 6.65 373.74 6.02L373.74 6.02L373.74 6.02Q373.74 5.92 373.74 5.75L373.74 5.75L373.74 5.75Q373.73 5.57 373.72 5.38L373.72 5.38L373.72 5.38Q373.72 5.19 373.70 5.04L373.70 5.04L373.70 5.04Q373.69 4.89 373.69 4.83ZM383.24 16.24L383.24 16.24L383.24 16.24Q382.56 16.04 382.31 15.85L382.31 15.85L382.31 15.85Q382.05 15.65 382.05 15.36L382.05 15.36L382.05 15.36Q382.05 15.13 382.17 14.73L382.17 14.73L382.17 14.73Q382.30 14.32 382.54 13.77L382.54 13.77L382.54 13.77Q382.79 13.22 383.13 12.54L383.13 12.54L383.13 12.54Q383.47 11.87 383.91 11.10L383.91 11.10L383.91 11.10Q383.54 11.09 383.26 11.08L383.26 11.08L383.26 11.08Q382.97 11.07 382.79 11.07L382.79 11.07L382.79 11.07Q382.87 10.86 383.26 10.71L383.26 10.71L383.26 10.71Q383.66 10.56 384.30 10.44L384.30 10.44L384.30 10.44Q384.85 9.53 385.47 8.71L385.47 8.71L385.47 8.71Q386.09 7.88 386.72 7.19L386.72 7.19L386.72 7.19Q387.35 6.50 387.98 5.97L387.98 5.97L387.98 5.97Q388.61 5.45 389.19 5.14L389.19 5.14L389.19 5.14Q389.20 5.04 389.21 4.97L389.21 4.97L389.21 4.97Q389.21 4.90 389.21 4.87L389.21 4.87L389.21 4.87Q389.41 4.87 389.74 4.97L389.74 4.97L389.74 4.97Q390.07 5.07 390.38 5.21L390.38 5.21L390.38 5.21Q390.70 5.35 390.94 5.49L390.94 5.49L390.94 5.49Q391.19 5.64 391.22 5.74L391.22 5.74L391.22 5.74Q390.75 6.55 390.31 8.17L390.31 8.17L390.31 8.17Q389.86 9.79 389.56 12.04L389.56 12.04L389.56 12.04Q389.49 12.60 389.44 13.31L389.44 13.31L389.44 13.31Q389.40 14.03 389.40 14.91L389.40 14.91L389.40 14.91Q389.40 15.22 389.40 15.54L389.40 15.54L389.40 15.54Q389.40 15.86 389.42 16.21L389.42 16.21L389.42 16.21Q389.40 16.23 389.37 16.23L389.37 16.23L389.37 16.23Q389.34 16.23 389.26 16.23L389.26 16.23L389.26 16.23Q389.06 16.23 388.80 16.16L388.80 16.16L388.80 16.16Q388.54 16.10 388.30 16.01L388.30 16.01L388.30 16.01Q388.05 15.92 387.88 15.81L387.88 15.81L387.88 15.81Q387.70 15.69 387.66 15.61L387.66 15.61L387.66 15.61Q387.65 15.43 387.65 15.25L387.65 15.25L387.65 15.25Q387.65 15.08 387.65 14.88L387.65 14.88L387.65 14.88Q387.65 14.01 387.71 13.12L387.71 13.12L387.71 13.12Q387.77 12.22 387.93 11.27L387.93 11.27L387.93 11.27Q387.73 11.26 387.41 11.23L387.41 11.23L387.41 11.23Q387.09 11.21 386.69 11.20L386.69 11.20L386.69 11.20Q386.29 11.19 385.83 11.16L385.83 11.16L385.83 11.16Q385.38 11.14 384.94 11.13L384.94 11.13L384.94 11.13Q384.61 11.76 384.31 12.38L384.31 12.38L384.31 12.38Q384.02 13.01 383.81 13.64L383.81 13.64L383.81 13.64Q383.57 14.31 383.43 14.98L383.43 14.98L383.43 14.98Q383.28 15.65 383.24 16.24ZM388.64 7.83L388.64 7.83L388.64 7.83Q388.70 7.63 388.77 7.29L388.77 7.29L388.77 7.29Q388.85 6.94 388.92 6.57L388.92 6.57L388.92 6.57Q388.57 6.69 388.14 7.03L388.14 7.03L388.14 7.03Q387.72 7.36 387.26 7.86L387.26 7.86L387.26 7.86Q386.81 8.36 386.34 8.98L386.34 8.98L386.34 8.98Q385.87 9.60 385.43 10.30L385.43 10.30L385.43 10.30Q386.61 10.21 388.11 10.18L388.11 10.18L388.11 10.18Q388.22 9.59 388.35 9.01L388.35 9.01L388.35 9.01Q388.49 8.43 388.64 7.83ZM402.50 16.07L402.50 16.07L402.50 16.07Q402.18 16.24 401.81 16.24L401.81 16.24L401.81 16.24Q401.37 16.18 400.95 16.02L400.95 16.02L400.95 16.02Q400.54 15.85 400.34 15.61L400.34 15.61L400.34 15.61Q400.23 14.92 400.16 14.35L400.16 14.35L400.16 14.35Q400.09 13.78 400.05 13.27L400.05 13.27L400.05 13.27Q400.01 12.75 399.99 12.29L399.99 12.29L399.99 12.29Q399.98 11.82 399.98 11.34L399.98 11.34L399.98 11.34Q399.98 10.71 399.99 10.01L399.99 10.01L399.99 10.01Q400.01 9.31 400.03 8.52L400.03 8.52L400.03 8.52Q400.05 7.73 400.06 6.82L400.06 6.82L400.06 6.82Q400.08 5.92 400.08 4.86L400.08 4.86L400.08 4.86Q400.26 4.86 400.62 4.96L400.62 4.96L400.62 4.96Q400.99 5.07 401.35 5.21L401.35 5.21L401.35 5.21Q401.70 5.35 401.98 5.49L401.98 5.49L401.98 5.49Q402.26 5.64 402.29 5.74L402.29 5.74L402.29 5.74Q402.15 6.13 402.05 6.76L402.05 6.76L402.05 6.76Q401.94 7.39 401.88 8.16L401.88 8.16L401.88 8.16Q401.81 8.93 401.79 9.79L401.79 9.79L401.79 9.79Q401.76 10.64 401.76 11.48L401.76 11.48L401.76 11.48Q401.76 12.11 401.77 12.61L401.77 12.61L401.77 12.61Q401.79 13.10 401.81 13.50L401.81 13.50L401.81 13.50Q401.83 13.90 401.87 14.25L401.87 14.25L401.87 14.25Q401.91 14.59 401.97 14.92L401.97 14.92L401.97 14.92Q402.36 13.73 402.83 12.54L402.83 12.54L402.83 12.54Q403.30 11.35 403.80 10.25L403.80 10.25L403.80 10.25Q404.29 9.16 404.78 8.20L404.78 8.20L404.78 8.20Q405.27 7.25 405.71 6.54L405.71 6.54L405.71 6.54Q406.15 5.84 406.50 5.43L406.50 5.43L406.50 5.43Q406.85 5.01 407.08 4.98L407.08 4.98L407.08 4.98Q407.23 5.01 407.41 5.10L407.41 5.10L407.41 5.10Q407.58 5.19 407.74 5.32L407.74 5.32L407.74 5.32Q407.89 5.45 408.02 5.60L408.02 5.60L408.02 5.60Q408.14 5.75 408.21 5.91L408.21 5.91L408.21 5.91Q407.69 6.09 407.10 6.76L407.10 6.76L407.10 6.76Q406.50 7.43 405.90 8.38L405.90 8.38L405.90 8.38Q405.30 9.32 404.73 10.44L404.73 10.44L404.73 10.44Q404.17 11.55 403.71 12.61L403.71 12.61L403.71 12.61Q403.26 13.68 402.93 14.60L402.93 14.60L402.93 14.60Q402.61 15.53 402.50 16.07ZM414.08 16.24L414.08 16.24L414.08 16.24Q413.41 16.04 413.15 15.85L413.15 15.85L413.15 15.85Q412.89 15.65 412.89 15.36L412.89 15.36L412.89 15.36Q412.89 15.13 413.01 14.73L413.01 14.73L413.01 14.73Q413.14 14.32 413.38 13.77L413.38 13.77L413.38 13.77Q413.63 13.22 413.97 12.54L413.97 12.54L413.97 12.54Q414.32 11.87 414.75 11.10L414.75 11.10L414.75 11.10Q414.39 11.09 414.10 11.08L414.10 11.08L414.10 11.08Q413.81 11.07 413.63 11.07L413.63 11.07L413.63 11.07Q413.71 10.86 414.11 10.71L414.11 10.71L414.11 10.71Q414.50 10.56 415.14 10.44L415.14 10.44L415.14 10.44Q415.69 9.53 416.31 8.71L416.31 8.71L416.31 8.71Q416.93 7.88 417.56 7.19L417.56 7.19L417.56 7.19Q418.19 6.50 418.82 5.97L418.82 5.97L418.82 5.97Q419.45 5.45 420.03 5.14L420.03 5.14L420.03 5.14Q420.04 5.04 420.05 4.97L420.05 4.97L420.05 4.97Q420.06 4.90 420.06 4.87L420.06 4.87L420.06 4.87Q420.25 4.87 420.58 4.97L420.58 4.97L420.58 4.97Q420.91 5.07 421.22 5.21L421.22 5.21L421.22 5.21Q421.54 5.35 421.78 5.49L421.78 5.49L421.78 5.49Q422.03 5.64 422.06 5.74L422.06 5.74L422.06 5.74Q421.60 6.55 421.15 8.17L421.15 8.17L421.15 8.17Q420.70 9.79 420.41 12.04L420.41 12.04L420.41 12.04Q420.34 12.60 420.29 13.31L420.29 13.31L420.29 13.31Q420.24 14.03 420.24 14.91L420.24 14.91L420.24 14.91Q420.24 15.22 420.24 15.54L420.24 15.54L420.24 15.54Q420.24 15.86 420.27 16.21L420.27 16.21L420.27 16.21Q420.24 16.23 420.21 16.23L420.21 16.23L420.21 16.23Q420.18 16.23 420.10 16.23L420.10 16.23L420.10 16.23Q419.90 16.23 419.64 16.16L419.64 16.16L419.64 16.16Q419.38 16.10 419.14 16.01L419.14 16.01L419.14 16.01Q418.89 15.92 418.72 15.81L418.72 15.81L418.72 15.81Q418.54 15.69 418.50 15.61L418.50 15.61L418.50 15.61Q418.49 15.43 418.49 15.25L418.49 15.25L418.49 15.25Q418.49 15.08 418.49 14.88L418.49 14.88L418.49 14.88Q418.49 14.01 418.55 13.12L418.55 13.12L418.55 13.12Q418.61 12.22 418.77 11.27L418.77 11.27L418.77 11.27Q418.57 11.26 418.25 11.23L418.25 11.23L418.25 11.23Q417.93 11.21 417.53 11.20L417.53 11.20L417.53 11.20Q417.13 11.19 416.68 11.16L416.68 11.16L416.68 11.16Q416.22 11.14 415.79 11.13L415.79 11.13L415.79 11.13Q415.45 11.76 415.16 12.38L415.16 12.38L415.16 12.38Q414.86 13.01 414.65 13.64L414.65 13.64L414.65 13.64Q414.41 14.31 414.27 14.98L414.27 14.98L414.27 14.98Q414.12 15.65 414.08 16.24ZM419.48 7.83L419.48 7.83L419.48 7.83Q419.54 7.63 419.62 7.29L419.62 7.29L419.62 7.29Q419.69 6.94 419.76 6.57L419.76 6.57L419.76 6.57Q419.41 6.69 418.99 7.03L418.99 7.03L418.99 7.03Q418.56 7.36 418.10 7.86L418.10 7.86L418.10 7.86Q417.65 8.36 417.18 8.98L417.18 8.98L417.18 8.98Q416.71 9.60 416.28 10.30L416.28 10.30L416.28 10.30Q417.45 10.21 418.95 10.18L418.95 10.18L418.95 10.18Q419.06 9.59 419.19 9.01L419.19 9.01L419.19 9.01Q419.33 8.43 419.48 7.83Z"></path></g></svg>