<svg data-v-423bf9ae="" xmlns="http://www.w3.org/2000/svg" viewBox="0 0 278.5714591234085 60" class="font"><!----><!----><!----><g data-v-423bf9ae="" id="083c8141-3d41-4a4c-8a21-472144d6a936" fill="white" transform="matrix(4.983389114836497,0,0,4.983389114836497,-1.0465081242454346,-14.252493056949454)"><path d="M0.21 2.86L6.38 2.86L6.38 2.86Q6.75 2.86 6.98 2.95L6.98 2.95L6.98 2.95Q7.21 3.05 7.34 3.21L7.34 3.21L7.34 3.21Q7.48 3.36 7.53 3.56L7.53 3.56L7.53 3.56Q7.57 3.77 7.57 3.98L7.57 3.98L7.57 5.17L7.15 5.17L7.15 5.17Q7.15 4.27 6.70 3.88L6.70 3.88L6.70 3.88Q6.24 3.49 5.40 3.49L5.40 3.49L3.15 3.49L3.15 6.99L6.79 6.99L6.79 7.62L3.15 7.62L3.15 11.47L5.54 11.47L5.54 11.47Q6.31 11.47 6.85 11.12L6.85 11.12L6.85 11.12Q7.39 10.78 7.76 9.87L7.76 9.87L8.13 10.01L7.73 11.12L7.73 11.12Q7.57 11.56 7.33 11.83L7.33 11.83L7.33 11.83Q7.08 12.10 6.51 12.10L6.51 12.10L1.33 12.10L1.33 4.68L1.33 4.68Q1.33 4.05 1.16 3.66L1.16 3.66L1.16 3.66Q0.98 3.28 0.35 3.28L0.35 3.28L0.21 3.28L0.21 2.86ZM12.80 10.63L12.80 8.88L12.59 8.88L12.59 8.88Q11.58 8.88 11.14 9.24L11.14 9.24L11.14 9.24Q10.70 9.60 10.70 10.35L10.70 10.35L10.70 10.35Q10.70 10.93 10.94 11.23L10.94 11.23L10.94 11.23Q11.19 11.54 11.61 11.54L11.61 11.54L11.61 11.54Q11.93 11.54 12.14 11.40L12.14 11.40L12.14 11.40Q12.36 11.26 12.52 11.09L12.52 11.09L12.52 11.09Q12.68 10.89 12.80 10.63L12.80 10.63ZM11.75 5.38L11.75 5.38L11.75 5.38Q13.12 5.38 13.87 6.10L13.87 6.10L13.87 6.10Q14.62 6.83 14.62 8.32L14.62 8.32L14.62 12.10L13.43 12.10L12.94 11.47L12.87 11.47L12.87 11.47Q12.71 11.69 12.47 11.86L12.47 11.86L12.47 11.86Q12.28 12.01 11.96 12.12L11.96 12.12L11.96 12.12Q11.63 12.24 11.19 12.24L11.19 12.24L11.19 12.24Q10.02 12.24 9.42 11.71L9.42 11.71L9.42 11.71Q8.81 11.19 8.81 10.35L8.81 10.35L8.81 10.35Q8.81 9.84 8.97 9.46L8.97 9.46L8.97 9.46Q9.14 9.07 9.57 8.80L9.57 8.80L9.57 8.80Q10.00 8.53 10.72 8.39L10.72 8.39L10.72 8.39Q11.45 8.25 12.59 8.25L12.59 8.25L12.80 8.25L12.80 8.25Q12.80 6.99 12.45 6.50L12.45 6.50L12.45 6.50Q12.10 6.01 11.47 6.01L11.47 6.01L11.47 6.01Q11.23 6.01 11.01 6.05L11.01 6.05L11.01 6.05Q10.79 6.10 10.61 6.24L10.61 6.24L10.61 6.24Q10.43 6.38 10.29 6.63L10.29 6.63L10.29 6.63Q10.15 6.87 10.07 7.27L10.07 7.27L9.30 7.27L9.30 7.27Q9.30 6.90 9.35 6.52L9.35 6.52L9.35 6.52Q9.39 6.15 9.65 5.87L9.65 5.87L9.65 5.87Q9.90 5.59 10.48 5.48L10.48 5.48L10.48 5.48Q11.06 5.38 11.75 5.38ZM18.27 11.61L18.27 11.61L18.27 11.61Q19.05 11.61 19.36 11.33L19.36 11.33L19.36 11.33Q19.67 11.06 19.67 10.65L19.67 10.65L19.67 10.65Q19.67 10.25 19.31 10.00L19.31 10.00L19.31 10.00Q18.94 9.76 18.41 9.52L18.41 9.52L17.68 9.21L17.68 9.21Q16.84 8.85 16.37 8.39L16.37 8.39L16.37 8.39Q15.89 7.92 15.89 7.24L15.89 7.24L15.89 7.24Q15.89 6.78 16.09 6.43L16.09 6.43L16.09 6.43Q16.28 6.09 16.64 5.85L16.64 5.85L16.64 5.85Q17.00 5.61 17.49 5.50L17.49 5.50L17.49 5.50Q17.98 5.38 18.55 5.38L18.55 5.38L18.55 5.38Q19.42 5.38 19.97 5.53L19.97 5.53L19.97 5.53Q20.52 5.68 20.80 5.95L20.80 5.95L20.80 5.95Q21.06 6.19 21.10 6.64L21.10 6.64L21.10 6.64Q21.14 7.08 21.14 7.62L21.14 7.62L20.65 7.62L20.65 7.62Q20.54 6.94 20.10 6.47L20.10 6.47L20.10 6.47Q19.67 6.01 18.83 6.01L18.83 6.01L18.83 6.01Q18.20 6.01 17.92 6.28L17.92 6.28L17.92 6.28Q17.64 6.55 17.64 6.96L17.64 6.96L17.64 6.96Q17.64 7.34 17.91 7.57L17.91 7.57L17.91 7.57Q18.17 7.80 18.63 7.99L18.63 7.99L19.47 8.34L19.47 8.34Q20.44 8.75 20.93 9.19L20.93 9.19L20.93 9.19Q21.42 9.63 21.42 10.37L21.42 10.37L21.42 10.37Q21.42 10.84 21.20 11.18L21.20 11.18L21.20 11.18Q20.99 11.52 20.61 11.76L20.61 11.76L20.61 11.76Q20.23 12.00 19.71 12.12L19.71 12.12L19.71 12.12Q19.18 12.24 18.55 12.24L18.55 12.24L18.55 12.24Q17.68 12.24 17.13 12.08L17.13 12.08L17.13 12.08Q16.58 11.93 16.30 11.66L16.30 11.66L16.30 11.66Q16.04 11.42 16.00 10.98L16.00 10.98L16.00 10.98Q15.96 10.53 15.96 10.00L15.96 10.00L16.45 10.00L16.45 10.00Q16.56 10.67 17.00 11.14L17.00 11.14L17.00 11.14Q17.43 11.61 18.27 11.61ZM28.78 5.52L25.96 13.01L25.96 13.01Q25.75 13.58 25.51 13.94L25.51 13.94L25.51 13.94Q25.27 14.31 25.00 14.52L25.00 14.52L25.00 14.52Q24.74 14.73 24.42 14.81L24.42 14.81L24.42 14.81Q24.11 14.90 23.74 14.90L23.74 14.90L23.18 14.90L23.18 14.41L23.18 14.41Q23.55 14.41 23.85 14.34L23.85 14.34L23.85 14.34Q24.15 14.28 24.40 14.13L24.40 14.13L24.40 14.13Q24.65 13.97 24.85 13.71L24.85 13.71L24.85 13.71Q25.05 13.45 25.20 13.05L25.20 13.05L25.49 12.29L22.97 6.78L22.97 6.78Q22.51 5.75 21.67 5.66L21.67 5.66L21.67 5.38L22.90 5.38L22.90 5.38Q23.53 5.38 24.01 5.68L24.01 5.68L24.01 5.68Q24.49 5.98 24.72 6.50L24.72 6.50L26.33 10.02L28.04 5.52L28.78 5.52ZM32.97 6.01L32.97 6.01L32.97 6.01Q32.23 6.01 31.76 6.69L31.76 6.69L31.76 6.69Q31.29 7.38 31.29 8.81L31.29 8.81L31.29 8.81Q31.29 11.61 33.04 11.61L33.04 11.61L33.04 11.61Q33.77 11.61 34.22 11.27L34.22 11.27L34.22 11.27Q34.68 10.93 35.04 10.44L35.04 10.44L35.48 10.77L35.48 10.77Q35.32 11.00 35.11 11.26L35.11 11.26L35.11 11.26Q34.89 11.52 34.57 11.74L34.57 11.74L34.57 11.74Q34.24 11.96 33.80 12.10L33.80 12.10L33.80 12.10Q33.36 12.24 32.76 12.24L32.76 12.24L32.76 12.24Q31.92 12.24 31.29 11.96L31.29 11.96L31.29 11.96Q30.66 11.69 30.24 11.22L30.24 11.22L30.24 11.22Q29.82 10.75 29.61 10.13L29.61 10.13L29.61 10.13Q29.40 9.51 29.40 8.81L29.40 8.81L29.40 8.81Q29.40 8.11 29.61 7.48L29.61 7.48L29.61 7.48Q29.82 6.86 30.24 6.39L30.24 6.39L30.24 6.39Q30.66 5.92 31.29 5.65L31.29 5.65L31.29 5.65Q31.92 5.38 32.76 5.38L32.76 5.38L32.76 5.38Q33.56 5.38 34.11 5.49L34.11 5.49L34.11 5.49Q34.66 5.60 34.93 5.87L34.93 5.87L34.93 5.87Q35.20 6.13 35.24 6.58L35.24 6.58L35.24 6.58Q35.28 7.03 35.28 7.83L35.28 7.83L34.86 7.83L34.86 7.83Q34.80 6.93 34.31 6.47L34.31 6.47L34.31 6.47Q33.81 6.01 32.97 6.01ZM41.17 8.81L41.17 8.81L41.17 8.81Q41.17 8.20 41.08 7.69L41.08 7.69L41.08 7.69Q40.99 7.18 40.81 6.80L40.81 6.80L40.81 6.80Q40.63 6.43 40.35 6.22L40.35 6.22L40.35 6.22Q40.07 6.01 39.70 6.01L39.70 6.01L39.70 6.01Q39.34 6.01 39.06 6.22L39.06 6.22L39.06 6.22Q38.78 6.43 38.60 6.80L38.60 6.80L38.60 6.80Q38.42 7.18 38.33 7.69L38.33 7.69L38.33 7.69Q38.23 8.20 38.23 8.81L38.23 8.81L38.23 8.81Q38.23 9.41 38.33 9.92L38.33 9.92L38.33 9.92Q38.42 10.43 38.60 10.81L38.60 10.81L38.60 10.81Q38.78 11.19 39.06 11.40L39.06 11.40L39.06 11.40Q39.34 11.61 39.70 11.61L39.70 11.61L39.70 11.61Q40.07 11.61 40.35 11.40L40.35 11.40L40.35 11.40Q40.63 11.19 40.81 10.81L40.81 10.81L40.81 10.81Q40.99 10.43 41.08 9.92L41.08 9.92L41.08 9.92Q41.17 9.41 41.17 8.81ZM36.34 8.81L36.34 8.81L36.34 8.81Q36.34 8.09 36.58 7.46L36.58 7.46L36.58 7.46Q36.81 6.83 37.24 6.37L37.24 6.37L37.24 6.37Q37.67 5.91 38.30 5.64L38.30 5.64L38.30 5.64Q38.92 5.38 39.70 5.38L39.70 5.38L39.70 5.38Q40.49 5.38 41.11 5.64L41.11 5.64L41.11 5.64Q41.73 5.91 42.17 6.37L42.17 6.37L42.17 6.37Q42.60 6.83 42.83 7.46L42.83 7.46L42.83 7.46Q43.06 8.09 43.06 8.81L43.06 8.81L43.06 8.81Q43.06 9.52 42.83 10.15L42.83 10.15L42.83 10.15Q42.60 10.78 42.17 11.24L42.17 11.24L42.17 11.24Q41.73 11.70 41.11 11.97L41.11 11.97L41.11 11.97Q40.49 12.24 39.70 12.24L39.70 12.24L39.70 12.24Q38.92 12.24 38.30 11.97L38.30 11.97L38.30 11.97Q37.67 11.70 37.24 11.24L37.24 11.24L37.24 11.24Q36.81 10.78 36.58 10.15L36.58 10.15L36.58 10.15Q36.34 9.52 36.34 8.81ZM47.91 5.38L47.91 5.38L47.91 5.38Q48.52 5.38 48.90 5.66L48.90 5.66L48.90 5.66Q49.03 5.74 49.11 5.85L49.11 5.85L49.11 5.85Q49.20 5.96 49.26 6.06L49.26 6.06L49.26 6.06Q49.32 6.16 49.35 6.22L49.35 6.22L49.35 6.22Q49.38 6.29 49.38 6.29L49.38 6.29L48.66 6.83L48.66 6.83Q48.57 6.69 48.41 6.57L48.41 6.57L48.41 6.57Q48.29 6.45 48.11 6.37L48.11 6.37L48.11 6.37Q47.94 6.29 47.70 6.29L47.70 6.29L47.70 6.29Q47.25 6.29 46.94 6.41L46.94 6.41L46.94 6.41Q46.63 6.54 46.45 6.72L46.45 6.72L46.45 6.72Q46.47 6.82 46.48 6.93L46.48 6.93L46.48 6.93Q46.49 7.03 46.50 7.15L46.50 7.15L46.50 7.15Q46.51 7.27 46.51 7.39L46.51 7.39L46.51 12.10L44.69 12.10L44.69 7.34L44.69 7.34Q44.69 7.03 44.65 6.77L44.65 6.77L44.65 6.77Q44.62 6.51 44.52 6.32L44.52 6.32L44.52 6.32Q44.42 6.13 44.23 6.03L44.23 6.03L44.23 6.03Q44.03 5.94 43.72 5.94L43.72 5.94L43.58 5.94L43.58 5.52L44.97 5.52L44.97 5.52Q45.44 5.52 45.72 5.63L45.72 5.63L45.72 5.63Q45.99 5.75 46.14 6.03L46.14 6.03L46.14 6.03Q46.40 5.81 46.84 5.59L46.84 5.59L46.84 5.59Q47.28 5.38 47.91 5.38ZM54.29 10.70L54.29 6.43L54.29 6.43Q54.14 6.31 53.96 6.22L53.96 6.22L53.96 6.22Q53.80 6.15 53.59 6.08L53.59 6.08L53.59 6.08Q53.37 6.01 53.10 6.01L53.10 6.01L53.10 6.01Q52.71 6.01 52.44 6.22L52.44 6.22L52.44 6.22Q52.18 6.43 52.01 6.80L52.01 6.80L52.01 6.80Q51.84 7.18 51.77 7.69L51.77 7.69L51.77 7.69Q51.70 8.20 51.70 8.81L51.70 8.81L51.70 8.81Q51.70 9.41 51.77 9.92L51.77 9.92L51.77 9.92Q51.84 10.43 52.00 10.81L52.00 10.81L52.00 10.81Q52.15 11.19 52.41 11.40L52.41 11.40L52.41 11.40Q52.67 11.61 53.03 11.61L53.03 11.61L53.03 11.61Q53.35 11.61 53.59 11.47L53.59 11.47L53.59 11.47Q53.82 11.33 53.97 11.16L53.97 11.16L53.97 11.16Q54.15 10.96 54.29 10.70L54.29 10.70ZM54.29 5.80L54.29 4.68L54.29 4.68Q54.29 4.05 54.12 3.66L54.12 3.66L54.12 3.66Q53.94 3.28 53.31 3.28L53.31 3.28L53.17 3.28L53.17 2.86L54.85 2.86L54.85 2.86Q55.22 2.86 55.46 2.95L55.46 2.95L55.46 2.95Q55.71 3.04 55.85 3.25L55.85 3.25L55.85 3.25Q56.00 3.46 56.06 3.81L56.06 3.81L56.06 3.81Q56.11 4.16 56.11 4.68L56.11 4.68L56.11 12.10L54.92 12.10L54.43 11.47L54.36 11.47L54.36 11.47Q54.21 11.69 53.97 11.86L53.97 11.86L53.97 11.86Q53.77 12.01 53.47 12.12L53.47 12.12L53.47 12.12Q53.17 12.24 52.75 12.24L52.75 12.24L52.75 12.24Q52.01 12.24 51.46 11.97L51.46 11.97L51.46 11.97Q50.92 11.70 50.55 11.24L50.55 11.24L50.55 11.24Q50.18 10.78 49.99 10.15L49.99 10.15L49.99 10.15Q49.81 9.52 49.81 8.81L49.81 8.81L49.81 8.81Q49.81 8.09 49.99 7.46L49.99 7.46L49.99 7.46Q50.18 6.83 50.55 6.37L50.55 6.37L50.55 6.37Q50.93 5.91 51.50 5.64L51.50 5.64L51.50 5.64Q52.07 5.38 52.82 5.38L52.82 5.38L52.82 5.38Q53.16 5.38 53.43 5.45L53.43 5.45L53.43 5.45Q53.70 5.52 53.90 5.59L53.90 5.59L53.90 5.59Q54.12 5.68 54.29 5.80L54.29 5.80Z"></path></g><!----><!----></svg>